<?xml version="1.0" encoding="utf-8"?>
<!-- Generator: Adobe Illustrator 17.0.0, SVG Export Plug-In . SVG Version: 6.00 Build 0)  -->
<!DOCTYPE svg PUBLIC "-//W3C//DTD SVG 1.1//EN" "http://www.w3.org/Graphics/SVG/1.1/DTD/svg11.dtd">
<svg version="1.1" id="Layer_1" xmlns="http://www.w3.org/2000/svg" xmlns:xlink="http://www.w3.org/1999/xlink" x="0px" y="0px"
	 width="21px" height="38px" viewBox="0 0 21 38" enable-background="new 0 0 21 38" xml:space="preserve">
<path fill="#FFFFFF" d="M20.115,33.287L6.782,19.954L20.115,6.621c1.149-1.149,1.149-2.759,0-3.908
	c-1.149-1.149-2.874-1.149-4.023,0L0.826,17.978H0v2.365h0.031c0.069,0.606,0.298,1.089,0.774,1.564l15.287,15.287
	C16.667,37.77,17.356,38,18.046,38c0.69,0,1.494-0.23,2.069-0.805c0.477-0.477,0.744-1.033,0.825-1.602h0.037v-1.922h-0.54
	C20.34,33.54,20.237,33.41,20.115,33.287z"/>
<path fill="#979695" d="M6.782,18.103L20.115,4.77c1.149-1.149,1.149-2.759,0-3.908s-2.874-1.149-4.023,0L0.805,16.149
	C0.23,16.724,0,17.299,0,18.103s0.23,1.379,0.805,1.954l15.287,15.287c0.575,0.575,1.264,0.805,1.954,0.805s1.494-0.23,2.069-0.805
	c1.149-1.149,1.149-2.759,0-3.908L6.782,18.103z"/>
</svg>
