<?xml version="1.0" encoding="utf-8"?>
<!-- Generator: Adobe Illustrator 18.0.0, SVG Export Plug-In . SVG Version: 6.00 Build 0)  -->
<!DOCTYPE svg PUBLIC "-//W3C//DTD SVG 1.1//EN" "http://www.w3.org/Graphics/SVG/1.1/DTD/svg11.dtd">
<svg version="1.1" id="Layer_1" xmlns="http://www.w3.org/2000/svg" xmlns:xlink="http://www.w3.org/1999/xlink" x="0px" y="0px"
	 viewBox="0 0 20 18" enable-background="new 0 0 20 18" xml:space="preserve">
<path fill="#FACB0E" d="M16.5,14.1c1.7-1.5,2.8-3.6,2.8-5.9C19.3,3.7,15.1,0,10,0S0.7,3.7,0.7,8.2s4.2,8.2,9.3,8.2
	c0.7,0,1.3-0.1,2-0.2c1,0.5,5.1,2.4,7.2,1.5C19.3,17.2,16.9,16.3,16.5,14.1z M9.3,8.6c0,2.2-1,3.5-2.9,3.7c0,0,0,0,0,0
	c0,0,0,0-0.1,0c0,0,0,0,0-0.1v-1.1c0,0,0-0.1,0-0.1c0.9-0.5,1.3-1.2,1.4-2.3H6.4c0,0-0.1,0-0.1-0.1V5.7c0-0.1,0-0.1,0.1-0.1h2.9
	c0,0,0.1,0,0.1,0.1V8.6z M14.4,8.6c0,2.2-0.9,3.3-2.9,3.7c0,0,0,0,0,0c0,0,0,0-0.1,0c0,0,0,0,0-0.1v-1.1c0,0,0-0.1,0-0.1
	c0.9-0.5,1.3-1.2,1.4-2.3h-1.3c0,0-0.1,0-0.1-0.1V5.7c0-0.1,0-0.1,0.1-0.1h2.9c0.1,0,0.1,0,0.1,0.1V8.6z"/>
</svg>
