<?xml version="1.0" encoding="utf-8"?>
<!-- Generator: Adobe Illustrator 18.0.0, SVG Export Plug-In . SVG Version: 6.00 Build 0)  -->
<!DOCTYPE svg PUBLIC "-//W3C//DTD SVG 1.1//EN" "http://www.w3.org/Graphics/SVG/1.1/DTD/svg11.dtd">
<svg version="1.1" id="Layer_1" xmlns="http://www.w3.org/2000/svg" xmlns:xlink="http://www.w3.org/1999/xlink" x="0px" y="0px"
	 viewBox="0 0 17 13" enable-background="new 0 0 17 13" xml:space="preserve">
<g>
	<path fill="#808285" d="M10.6,6.5h2.1c0,2.3-1.9,4.2-4.2,4.2c-0.8,0-1.5-0.2-2.2-0.6l-1.3,1.7c1,0.7,2.2,1,3.4,1
		c3.5,0,6.3-2.8,6.3-6.3h2.1l-3.2-4.2L10.6,6.5z"/>
	<path fill="#808285" d="M4.3,6.5c0-2.3,1.9-4.2,4.2-4.2c0.8,0,1.5,0.2,2.2,0.6l1.3-1.7c-1-0.7-2.2-1-3.4-1C5,0.2,2.2,3,2.2,6.5H0.1
		l3.2,4.2l3.2-4.2H4.3z"/>
</g>
</svg>
