<?xml version="1.0" encoding="utf-8"?>
<!-- Generator: Adobe Illustrator 18.0.0, SVG Export Plug-In . SVG Version: 6.00 Build 0)  -->
<!DOCTYPE svg PUBLIC "-//W3C//DTD SVG 1.1//EN" "http://www.w3.org/Graphics/SVG/1.1/DTD/svg11.dtd">
<svg version="1.1" id="Layer_1" xmlns="http://www.w3.org/2000/svg" xmlns:xlink="http://www.w3.org/1999/xlink" x="0px" y="0px"
	 viewBox="0 0 160 52" enable-background="new 0 0 160 52" xml:space="preserve">
<g>
	<g>
		<g>
			<path fill="#DFEAF8" d="M81.3,44.4v-4.9h-2v-0.4h4.6v0.4h-2v4.9H81.3z"/>
			<path fill="#DFEAF8" d="M87.2,44.5c-0.7,0-1.4-0.3-1.9-0.8c-0.5-0.5-0.8-1.2-0.8-2c0-0.8,0.2-1.5,0.7-2c0.5-0.5,1.1-0.8,1.7-0.8
				c0.7,0,1.2,0.2,1.6,0.6c0.4,0.4,0.6,1,0.6,1.8c0,0.2,0,0.3,0,0.4h-4.1c0,0.7,0.2,1.2,0.6,1.7c0.4,0.4,0.9,0.6,1.5,0.6
				c0.5,0,1.1-0.2,1.5-0.5l0.2,0.4C88.3,44.4,87.7,44.5,87.2,44.5z M85.1,41.4h3.6c0-0.7-0.1-1.2-0.4-1.5c-0.3-0.3-0.7-0.5-1.2-0.5
				c-0.5,0-0.9,0.2-1.3,0.6C85.3,40.3,85.1,40.8,85.1,41.4z"/>
			<path fill="#DFEAF8" d="M90.2,44.5c-0.2,0-0.3,0-0.4-0.1l0.1-0.5c0.1,0,0.2,0,0.2,0c0.5,0,0.7-0.4,0.8-1.3c0-0.3,0.1-0.6,0.1-1.1
				c0.1-0.5,0.1-0.9,0.2-1.3c0.1-0.4,0.1-0.8,0.1-1.1h3.1v5.3H94v-4.9h-2.1c-0.2,1.6-0.4,2.7-0.4,3.3C91.3,44,90.9,44.5,90.2,44.5z"
				/>
			<path fill="#DFEAF8" d="M98.8,44.5c-0.7,0-1.4-0.3-1.9-0.8c-0.5-0.5-0.8-1.2-0.8-2c0-0.8,0.2-1.5,0.7-2c0.5-0.5,1.1-0.8,1.7-0.8
				c0.7,0,1.2,0.2,1.6,0.6c0.4,0.4,0.6,1,0.6,1.8c0,0.2,0,0.3,0,0.4h-4.1c0,0.7,0.2,1.2,0.6,1.7c0.4,0.4,0.9,0.6,1.5,0.6
				c0.5,0,1.1-0.2,1.5-0.5l0.2,0.4C100,44.4,99.4,44.5,98.8,44.5z M96.7,41.4h3.6c0-0.7-0.1-1.2-0.4-1.5c-0.3-0.3-0.7-0.5-1.2-0.5
				c-0.5,0-0.9,0.2-1.3,0.6C97,40.3,96.8,40.8,96.7,41.4z"/>
			<path fill="#DFEAF8" d="M104.7,41.6l1.9,2.8h-0.6l-1.7-2.6h-1.4v2.6h-0.5v-5.3h0.5v2.3h1.4l0.6-1.3c0.2-0.5,0.4-0.8,0.6-0.9
				c0.2-0.2,0.4-0.2,0.7-0.2c0.1,0,0.2,0,0.3,0l-0.1,0.5c0,0-0.1,0-0.2,0c-0.2,0-0.3,0.1-0.4,0.2c-0.1,0.1-0.3,0.3-0.4,0.7
				L104.7,41.6z"/>
			<path fill="#DFEAF8" d="M109.1,44.5c-0.5,0-0.9-0.1-1.2-0.4c-0.3-0.2-0.5-0.6-0.5-1.1c0-0.6,0.3-1,0.9-1.3
				c0.6-0.3,1.5-0.5,2.8-0.7c0-1.1-0.4-1.7-1.3-1.7c-0.6,0-1.2,0.2-1.8,0.6l-0.2-0.4c0.7-0.5,1.4-0.7,2.1-0.7c0.6,0,1.1,0.2,1.4,0.6
				c0.3,0.4,0.4,0.9,0.4,1.5v3.4h-0.4l0-0.7h0C110.3,44.3,109.7,44.5,109.1,44.5z M109.2,44.1c0.6,0,1.2-0.3,1.9-0.9v-1.8
				c-1.1,0.1-1.9,0.3-2.4,0.6c-0.5,0.3-0.7,0.6-0.7,1c0,0.4,0.1,0.6,0.3,0.8C108.5,44,108.8,44.1,109.2,44.1z"/>
			<path fill="#DFEAF8" d="M113.6,44.4v-5.3h0.5v2.3h3.3v-2.3h0.5v5.3h-0.5v-2.6h-3.3v2.6H113.6z"/>
			<path fill="#DFEAF8" d="M121.4,44.5c-0.5,0-0.9-0.1-1.2-0.4s-0.5-0.6-0.5-1.1c0-0.6,0.3-1,0.9-1.3c0.6-0.3,1.5-0.5,2.8-0.7
				c0-1.1-0.4-1.7-1.3-1.7c-0.6,0-1.2,0.2-1.8,0.6l-0.2-0.4c0.7-0.5,1.4-0.7,2.1-0.7c0.6,0,1.1,0.2,1.4,0.6c0.3,0.4,0.4,0.9,0.4,1.5
				v3.4h-0.4l0-0.7h0C122.7,44.3,122,44.5,121.4,44.5z M121.5,44.1c0.6,0,1.2-0.3,1.9-0.9v-1.8c-1.1,0.1-1.9,0.3-2.4,0.6
				c-0.5,0.3-0.7,0.6-0.7,1c0,0.4,0.1,0.6,0.3,0.8C120.8,44,121.1,44.1,121.5,44.1z"/>
			<path fill="#DFEAF8" d="M125.4,44.5c-0.2,0-0.3,0-0.4-0.1l0.1-0.5c0.1,0,0.2,0,0.2,0c0.5,0,0.7-0.4,0.8-1.3
				c0-0.3,0.1-0.6,0.1-1.1c0.1-0.5,0.1-0.9,0.2-1.3c0.1-0.4,0.1-0.8,0.1-1.1h3.1v5.3h-0.5v-4.9h-2.1c-0.2,1.6-0.4,2.7-0.4,3.3
				C126.5,44,126.1,44.5,125.4,44.5z"/>
			<path fill="#DFEAF8" d="M134.3,44.4v-7.3h0.5v3.2h4.2v-3.2h0.5v7.3H139v-3.7h-4.2v3.7H134.3z"/>
			<path fill="#DFEAF8" d="M143.1,44.5c-0.5,0-0.9-0.1-1.2-0.4c-0.3-0.2-0.5-0.6-0.5-1.1c0-0.6,0.3-1,0.9-1.3
				c0.6-0.3,1.5-0.5,2.8-0.7c0-1.1-0.4-1.7-1.3-1.7c-0.6,0-1.2,0.2-1.8,0.6l-0.2-0.4c0.7-0.5,1.4-0.7,2.1-0.7c0.6,0,1.1,0.2,1.4,0.6
				c0.3,0.4,0.4,0.9,0.4,1.5v3.4h-0.4l0-0.7h0C144.3,44.3,143.7,44.5,143.1,44.5z M143.2,44.1c0.6,0,1.2-0.3,1.9-0.9v-1.8
				c-1.1,0.1-1.9,0.3-2.4,0.6c-0.5,0.3-0.7,0.6-0.7,1c0,0.4,0.1,0.6,0.3,0.8C142.5,44,142.8,44.1,143.2,44.1z"/>
			<path fill="#DFEAF8" d="M151.4,44h0.8v0.3l-0.1,2.1h-0.4v-1.9h-0.3h-0.5h-3.1h-0.4v1.9h-0.5l-0.1-2.1V44h0.1h0.1
				c0.2-0.1,0.4-0.3,0.5-0.6c0.1-0.3,0.3-0.9,0.4-1.8l0.3-2.5h3.1V44z M147.7,44h3.1v-4.5h-2.2l-0.3,2.2
				C148.3,42.8,148,43.6,147.7,44z"/>
			<path fill="#DFEAF8" d="M154.2,37.7c-0.1,0.1-0.2,0.1-0.3,0.1c-0.1,0-0.2,0-0.3-0.1c-0.1-0.1-0.1-0.2-0.1-0.3
				c0-0.1,0-0.2,0.1-0.3c0.1-0.1,0.2-0.1,0.3-0.1c0.1,0,0.2,0,0.3,0.1c0.1,0.1,0.1,0.2,0.1,0.3C154.3,37.5,154.2,37.6,154.2,37.7z
				 M153.5,44.4v-5.3h0.5v5.3H153.5z"/>
			<path fill="#DFEAF8" d="M158.2,39.1h1.7v5.3h-0.5v-2.3h-1.3h0l-1.8,2.3h-0.6l1.9-2.4c-0.5-0.1-0.8-0.2-1.1-0.5
				c-0.3-0.2-0.4-0.6-0.4-1C156,39.6,156.8,39.1,158.2,39.1z M159.4,41.7v-2.2h-1.1c-1.2,0-1.7,0.4-1.7,1.1c0,0.4,0.2,0.6,0.5,0.8
				c0.3,0.2,0.7,0.3,1.3,0.3H159.4z"/>
		</g>
	</g>
	<g>
		<path fill="#97BDE5" d="M84.6,30V16.5h1.7v5.6h6.3v-5.6h1.7V30h-1.7v-6.3h-6.3V30H84.6z"/>
		<path fill="#97BDE5" d="M104.3,28.8c-0.9,0.9-2,1.4-3.3,1.4c-1.3,0-2.4-0.5-3.3-1.4c-0.9-0.9-1.3-2.2-1.3-3.8
			c0-1.6,0.4-2.9,1.3-3.8c0.9-0.9,2-1.4,3.3-1.4c1.3,0,2.4,0.5,3.3,1.4c0.9,0.9,1.3,2.2,1.3,3.8C105.6,26.6,105.2,27.9,104.3,28.8z
			 M101,28.8c0.9,0,1.6-0.4,2.1-1.1c0.5-0.7,0.8-1.6,0.8-2.8c0-1.1-0.3-2.1-0.8-2.8c-0.5-0.7-1.2-1.1-2.1-1.1
			c-0.8,0-1.5,0.4-2.1,1.1c-0.5,0.7-0.8,1.6-0.8,2.8c0,1.1,0.3,2.1,0.8,2.8C99.5,28.5,100.2,28.8,101,28.8z"/>
		<path fill="#97BDE5" d="M107.6,33.7V20h1.4l0.1,1.1h0.1c1.1-0.9,2.2-1.4,3.2-1.4c1.3,0,2.2,0.5,2.9,1.4c0.7,0.9,1,2.1,1,3.7
			c0,1.6-0.4,2.9-1.3,3.9c-0.8,1-1.9,1.5-3,1.5c-0.9,0-1.8-0.4-2.8-1.1l0,1.7v2.9H107.6z M111.7,28.8c0.8,0,1.5-0.4,2.1-1.1
			c0.5-0.7,0.8-1.7,0.8-2.9c0-2.4-0.9-3.7-2.6-3.7c-0.8,0-1.7,0.5-2.7,1.4v5.2C110.1,28.5,110.9,28.8,111.7,28.8z"/>
		<path fill="#97BDE5" d="M122.4,30.2c-1.4,0-2.5-0.5-3.4-1.4c-0.9-0.9-1.4-2.2-1.4-3.8c0-1.6,0.4-2.8,1.3-3.8
			c0.9-1,1.9-1.5,3.1-1.5c1.3,0,2.2,0.4,2.9,1.3c0.7,0.8,1,2,1,3.4c0,0.4,0,0.7-0.1,1h-6.7c0.1,1.1,0.4,1.9,1,2.5
			c0.6,0.6,1.4,0.9,2.3,0.9c0.8,0,1.7-0.3,2.5-0.8l0.6,1.1C124.6,29.9,123.5,30.2,122.4,30.2z M119.3,24.2h5.3c0-1-0.2-1.8-0.6-2.3
			c-0.4-0.5-1-0.8-1.8-0.8c-0.7,0-1.4,0.3-1.9,0.8C119.7,22.5,119.4,23.2,119.3,24.2z"/>
		<path fill="#DFEAF8" d="M129.4,30.2c-0.3,0-0.6-0.1-0.9-0.4c-0.2-0.2-0.4-0.5-0.4-0.9c0-0.4,0.1-0.7,0.4-0.9
			c0.2-0.2,0.5-0.4,0.9-0.4c0.3,0,0.6,0.1,0.9,0.4c0.2,0.2,0.3,0.6,0.3,0.9c0,0.4-0.1,0.7-0.4,0.9C130,30.1,129.7,30.2,129.4,30.2z"
			/>
		<path fill="#DFEAF8" d="M136.7,30.2c-3.6,0-5.4-2.1-5.4-6.4v-7.2h3v7.5c0,1.3,0.2,2.2,0.6,2.7c0.4,0.5,1,0.8,1.7,0.8
			s1.4-0.3,1.8-0.8c0.4-0.5,0.6-1.4,0.6-2.7v-7.5h2.9v7.2c0,2.2-0.4,3.8-1.3,4.9C139.8,29.7,138.5,30.2,136.7,30.2z"/>
		<path fill="#DFEAF8" d="M151.3,30l-0.8-3.2h-4.1l-0.8,3.2h-3.1l4.2-13.4h3.6l4.2,13.4H151.3z M147,24.4h2.8l-0.3-1.2
			c-0.1-0.3-0.4-1.7-1.1-4.3h-0.1c-0.5,2.2-0.9,3.6-1,4.3L147,24.4z"/>
	</g>
	<g>
		<path fill="#104687" d="M62,1.5c-0.9-0.7-2-1.2-3.5-1.2l-54.9,0c0,0-4.5-0.3-3.5,4.5l9.3,42.7c0,0,1,4.8,5.5,3.8l10.2-3l0-0.5
			c0.6-8.1-0.1-10.3-0.9-14.3c-1.7-7.6-11.7-18.8-12.6-19.6c-0.9-0.8-1.2-2.6,2-1C27,19.5,36.1,31.7,36.9,31.6
			c1.3,0,17.5-22.3,24-29.2C61.3,2.1,61.7,1.8,62,1.5z"/>
		<path fill="#164193" d="M24.3,33.5c-1.7-7.6-11.7-18.8-12.6-19.6c-0.9-0.8-1.2-2.6,2-1C27,19.5,36.1,31.7,36.9,31.6
			c1.3,0,17.5-22.3,24-29.2c0.4-0.4,0.7-0.7,1-1c-0.9-0.7-2-1.2-3.5-1.2l-54.9,0c0,0-4.5-0.3-3.5,4.5l9.3,42.7c0,0,1,4.8,5.5,3.8
			l10.2-3l0-0.5C25.9,39.7,25.2,37.5,24.3,33.5"/>
		<path fill="#FFD400" d="M63.7,3.5c-8.1,16.2-13.1,26.9-13.9,37.6l-24.5,7.3l0-0.5c0.6-8.1-0.1-10.3-0.9-14.3
			c-1.7-7.6-11.7-18.8-12.6-19.6c-0.9-0.8-1.2-2.6,2-1C27,19.5,36.1,31.7,36.9,31.6c1.3,0,17.5-22.3,24-29.2c0.4-0.4,0.7-0.7,1-1
			C63,2.4,63.7,3.5,63.7,3.5"/>
		<path fill="#FFD400" d="M36.4,6.6c4.9,0,8.9,4.1,8.9,9.1c0,5-4,9-8.9,9c-4.9,0-8.9-4.1-8.9-9.1C27.5,10.7,31.5,6.6,36.4,6.6"/>
		<path fill="#164193" d="M64.4,5.2c0,0-0.2-0.8-0.8-1.8c-8.1,16.2-13.1,26.9-13.9,37.6l20-5.9c0,0,4.4-1,3-5.7L64.4,5.2z"/>
		<path fill="#104687" d="M49.7,37.2"/>
	</g>
</g>
</svg>
