<?xml version="1.0" encoding="utf-8"?>
<!-- Generator: Adobe Illustrator 18.0.0, SVG Export Plug-In . SVG Version: 6.00 Build 0)  -->
<!DOCTYPE svg PUBLIC "-//W3C//DTD SVG 1.1//EN" "http://www.w3.org/Graphics/SVG/1.1/DTD/svg11.dtd">
<svg version="1.1" id="Layer_1" xmlns="http://www.w3.org/2000/svg" xmlns:xlink="http://www.w3.org/1999/xlink" x="0px" y="0px"
	 viewBox="0 0 7 14" enable-background="new 0 0 7 14" xml:space="preserve">
<path fill="#DFEDFD" d="M1.7,2.7c0,0.4,0,2.1,0,2.1H0.2V7l1.5,0l0,7h2.9V7l1.9,0c0,0,0.1-1,0.2-2.2c-0.3,0-2.1,0-2.1,0s0-1.5,0-1.8
	c0-0.2,0.3-0.6,0.6-0.6c0.3,0,1,0,1.6,0c0-0.3,0-1.4,0-2.4C6,0,5,0,4.6,0C1.6,0,1.7,2.3,1.7,2.7z"/>
</svg>
