<?xml version="1.0" encoding="utf-8"?>
<!-- Generator: Adobe Illustrator 18.0.0, SVG Export Plug-In . SVG Version: 6.00 Build 0)  -->
<!DOCTYPE svg PUBLIC "-//W3C//DTD SVG 1.1//EN" "http://www.w3.org/Graphics/SVG/1.1/DTD/svg11.dtd">
<svg version="1.1" id="Layer_1" xmlns="http://www.w3.org/2000/svg" xmlns:xlink="http://www.w3.org/1999/xlink" x="0px" y="0px"
	 viewBox="0 0 18 18.1" enable-background="new 0 0 18 18.1" xml:space="preserve">
<path fill="#DFEDFD" d="M15.5,2.7c1.7,1.7,2.7,4,2.7,6.4s-0.9,4.7-2.7,6.4c-1.7,1.7-4,2.7-6.4,2.7s-4.7-0.9-6.4-2.7
	C0.9,13.7,0,11.5,0,9.1s0.9-4.7,2.7-6.4S6.6,0,9.1,0S13.7,0.9,15.5,2.7z M14.7,14.7c1.1-1.1,1.9-2.5,2.2-4c-0.2,0.4-0.5,0.5-0.6-0.3
	c-0.1-1.3-1.3-0.5-2.1-0.9c-0.8,0.5-2.5-1-2.2,0.7c0.5,0.8,2.5-1.1,1.5,0.6c-0.6,1.2-2.3,3.7-2.1,5.1c0,1.9-2,0.4-2.7-0.2
	c-0.5-1.3-0.2-3.5-1.4-4.2c-1.3-0.1-2.5-0.2-3-1.7C3.9,8.7,4.6,7.1,5.7,6.9c1.7-1,2.3,1.2,3.8,1.3c0.5-0.5,1.8-0.7,1.9-1.2
	c-1-0.2,1.3-0.9-0.1-1.2c-0.8,0.1-1.3,0.8-0.9,1.4C9,7.4,8.9,4.9,7.5,5.7c0,1.2-2.3,0.4-0.8,0.2c0.5-0.2-0.9-0.9-0.1-0.8
	C7,5,8.2,4.6,7.9,4.3c0.7-0.4,1.3,1,2,0c0.5-0.8-0.2-1-0.8-0.6c-0.3-0.4,0.6-1.2,1.5-1.6C10.7,2,11,1.9,11.2,2
	c0.4,0.5,1.2,0.6,1.3-0.1c-1.1-0.5-2.2-0.8-3.4-0.8c-1.7,0-3.4,0.5-4.7,1.6c0.4,0.2,0.6,0.4,0.2,0.6C4.3,4.2,3.2,5.2,2.2,5.1
	C1.7,6,1.4,6.9,1.2,7.9c0.8,0.3,1,0.8,0.8,1c-0.4,0.4-0.7,0.9-0.8,1.4c0.3,1.6,1,3.1,2.2,4.3C4.9,16.2,6.9,17,9.1,17
	C11.2,17,13.2,16.2,14.7,14.7z"/>
</svg>
