<?xml version="1.0" encoding="utf-8"?>
<!-- Generator: Adobe Illustrator 18.0.0, SVG Export Plug-In . SVG Version: 6.00 Build 0)  -->
<!DOCTYPE svg PUBLIC "-//W3C//DTD SVG 1.1//EN" "http://www.w3.org/Graphics/SVG/1.1/DTD/svg11.dtd">
<svg version="1.1" id="Layer_1" xmlns="http://www.w3.org/2000/svg" xmlns:xlink="http://www.w3.org/1999/xlink" x="0px" y="0px"
	 viewBox="0 0 10 10" enable-background="new 0 0 10 10" xml:space="preserve">
<g id="c40_rss">
	<path fill="#DFEDFD" d="M1.5,7C0.6,7,0,7.7,0,8.5C0,9.4,0.6,10,1.5,10S3,9.4,3,8.5C3,7.7,2.3,7,1.5,7z"/>
	<path fill="#DFEDFD" d="M0.1,3.3C0.1,3.3,0,3.4,0,3.4v1.9c0,0.1,0.1,0.1,0.1,0.1c2.4,0,4.4,2,4.4,4.4c0,0.1,0.1,0.1,0.1,0.1h1.9
		l0,0c0.1,0,0.1-0.1,0.1-0.1V9.7C6.7,6.2,3.8,3.3,0.1,3.3z"/>
	<path fill="#DFEDFD" d="M10,9.8C10,4.4,5.6,0,0.1,0C0.1,0,0,0.1,0,0.1v1.9c0,0.1,0.1,0.1,0.1,0.1c4.2,0,7.6,3.4,7.6,7.6
		c0,0.1,0.1,0.1,0.1,0.1h1.9l0,0C9.9,10,10,9.9,10,9.8L10,9.8z"/>
</g>
<g id="Capa_1">
</g>
</svg>
