<?xml version="1.0" encoding="utf-8"?>
<!-- Generator: Adobe Illustrator 18.0.0, SVG Export Plug-In . SVG Version: 6.00 Build 0)  -->
<!DOCTYPE svg PUBLIC "-//W3C//DTD SVG 1.1//EN" "http://www.w3.org/Graphics/SVG/1.1/DTD/svg11.dtd">
<svg version="1.1" id="Layer_1" xmlns="http://www.w3.org/2000/svg" xmlns:xlink="http://www.w3.org/1999/xlink" x="0px" y="0px"
	 viewBox="0 0 18.7 14" enable-background="new 0 0 18.7 14" xml:space="preserve">
<g id="Capa_1">
</g>
<path fill="#8A8C8E" d="M15.2,0H3.5C1.6,0,0,1.6,0,3.5v7C0,12.4,1.6,14,3.5,14h11.7c1.9,0,3.5-1.6,3.5-3.5v-7
	C18.7,1.6,17.1,0,15.2,0z M17.5,10.5c0,0.6-0.2,1.2-0.7,1.6c-0.4,0.4-1,0.7-1.6,0.7H3.5c-0.6,0-1.2-0.2-1.6-0.7
	c-0.4-0.4-0.7-1-0.7-1.6v-7c0-0.6,0.2-1.2,0.7-1.6s1-0.7,1.6-0.7h11.7c0.6,0,1.2,0.2,1.6,0.7c0.4,0.4,0.7,1,0.7,1.6V10.5z M7,11.7
	L12.8,7L7,2.3V11.7z"/>
</svg>
