<?xml version="1.0" encoding="utf-8"?>
<!-- Generator: Adobe Illustrator 18.0.0, SVG Export Plug-In . SVG Version: 6.00 Build 0)  -->
<!DOCTYPE svg PUBLIC "-//W3C//DTD SVG 1.1//EN" "http://www.w3.org/Graphics/SVG/1.1/DTD/svg11.dtd">
<svg version="1.1" id="Layer_2" xmlns="http://www.w3.org/2000/svg" xmlns:xlink="http://www.w3.org/1999/xlink" x="0px" y="0px"
	 viewBox="0 0 700 276" enable-background="new 0 0 700 276" xml:space="preserve">
<g>
	<g>
		<path fill="#DFEBF9" d="M363.3,210.7v-18.4h-7.6v-1.6h17.3v1.6h-7.6v18.4H363.3z"/>
		<path fill="#DFEBF9" d="M385.3,211.2c-2.8,0-5.2-0.9-7-2.8c-1.9-1.9-2.8-4.4-2.8-7.6c0-3.1,0.9-5.7,2.8-7.6c1.8-1.9,4-2.9,6.5-2.9
			c2.5,0,4.5,0.8,6,2.4c1.4,1.6,2.2,3.9,2.2,6.8c0,0.7,0,1.2-0.1,1.5h-15.4c0.1,2.6,0.8,4.6,2.3,6.3c1.5,1.6,3.4,2.4,5.8,2.4
			c2,0,4-0.6,5.7-1.8l0.8,1.4C389.7,210.6,387.5,211.2,385.3,211.2z M377.5,199.4h13.6c0-2.5-0.6-4.4-1.7-5.7c-1.1-1.3-2.6-2-4.6-2
			c-1.9,0-3.5,0.7-4.9,2.1C378.5,195.2,377.7,197.1,377.5,199.4z"/>
		<path fill="#DFEBF9" d="M396.7,211.2c-0.6,0-1.1-0.1-1.6-0.3l0.4-1.8c0.4,0.1,0.7,0.2,0.9,0.2c1.7,0,2.8-1.7,3.2-5
			c0.1-1,0.3-2.4,0.6-4.3c0.3-1.9,0.5-3.6,0.7-5.1c0.2-1.5,0.4-2.9,0.5-4.3h11.5v20h-2v-18.4H403c-0.8,6.2-1.3,10.3-1.6,12.4
			C400.9,209,399.3,211.2,396.7,211.2z"/>
		<path fill="#DFEBF9" d="M429.2,211.2c-2.8,0-5.2-0.9-7-2.8s-2.8-4.4-2.8-7.6c0-3.1,0.9-5.7,2.8-7.6c1.8-1.9,4-2.9,6.5-2.9
			c2.5,0,4.5,0.8,6,2.4s2.2,3.9,2.2,6.8c0,0.7,0,1.2-0.1,1.5h-15.4c0.1,2.6,0.8,4.6,2.3,6.3c1.5,1.6,3.4,2.4,5.8,2.4
			c2,0,4-0.6,5.7-1.8l0.8,1.4C433.6,210.6,431.4,211.2,429.2,211.2z M421.3,199.4h13.6c0-2.5-0.6-4.4-1.7-5.7c-1.1-1.3-2.6-2-4.6-2
			c-1.9,0-3.5,0.7-4.9,2.1C422.3,195.2,421.5,197.1,421.3,199.4z"/>
		<path fill="#DFEBF9" d="M451.3,200.1l7.3,10.6h-2.2l-6.5-9.6h-5.4v9.6h-2v-20h2v8.8h5.3l2.2-4.9c0.7-1.7,1.5-2.8,2.2-3.4
			c0.8-0.6,1.6-0.9,2.6-0.9c0.4,0,0.7,0.1,1,0.2l-0.4,1.8c-0.2-0.1-0.4-0.1-0.7-0.1c-0.6,0-1.2,0.2-1.7,0.6c-0.5,0.4-1,1.3-1.6,2.5
			L451.3,200.1z"/>
		<path fill="#DFEBF9" d="M467.6,211.2c-1.8,0-3.3-0.5-4.4-1.4s-1.7-2.3-1.7-4.1c0-2.2,1.1-3.9,3.3-5c2.2-1.2,5.7-2,10.5-2.5
			c0.1-4.2-1.6-6.3-5.1-6.3c-2.2,0-4.5,0.8-6.8,2.3l-0.9-1.4c2.6-1.7,5.3-2.6,7.9-2.6c2.4,0,4.1,0.7,5.2,2.1
			c1.1,1.4,1.6,3.3,1.6,5.6v12.8h-1.7l-0.2-2.6h-0.1C472.4,210.2,469.9,211.2,467.6,211.2z M468,209.6c2.1,0,4.5-1.1,7.2-3.3v-6.8
			c-4.3,0.5-7.3,1.2-9.1,2.1s-2.7,2.3-2.7,3.9c0,1.4,0.4,2.4,1.3,3C465.6,209.3,466.7,209.6,468,209.6z"/>
		<path fill="#DFEBF9" d="M484.8,210.7v-20h2v8.7h12.3v-8.7h2v20h-2V201h-12.3v9.7H484.8z"/>
		<path fill="#DFEBF9" d="M513.9,211.2c-1.8,0-3.3-0.5-4.4-1.4s-1.7-2.3-1.7-4.1c0-2.2,1.1-3.9,3.3-5c2.2-1.2,5.7-2,10.5-2.5
			c0.1-4.2-1.6-6.3-5.1-6.3c-2.2,0-4.5,0.8-6.8,2.3l-0.9-1.4c2.6-1.7,5.3-2.6,7.9-2.6c2.4,0,4.1,0.7,5.2,2.1
			c1.1,1.4,1.6,3.3,1.6,5.6v12.8h-1.7l-0.2-2.6h-0.1C518.7,210.2,516.1,211.2,513.9,211.2z M514.2,209.6c2.1,0,4.5-1.1,7.2-3.3v-6.8
			c-4.3,0.5-7.3,1.2-9.1,2.1s-2.7,2.3-2.7,3.9c0,1.4,0.4,2.4,1.3,3C511.8,209.3,512.9,209.6,514.2,209.6z"/>
		<path fill="#DFEBF9" d="M529,211.2c-0.6,0-1.1-0.1-1.6-0.3l0.4-1.8c0.4,0.1,0.7,0.2,0.9,0.2c1.7,0,2.8-1.7,3.2-5
			c0.1-1,0.3-2.4,0.6-4.3c0.3-1.9,0.5-3.6,0.7-5.1c0.2-1.5,0.4-2.9,0.5-4.3h11.5v20h-2v-18.4h-7.9c-0.8,6.2-1.3,10.3-1.6,12.4
			C533.2,209,531.7,211.2,529,211.2z"/>
		<path fill="#DFEBF9" d="M562.5,210.7v-27.5h2v12.1h15.7v-12.1h2v27.5h-2v-13.8h-15.7v13.8H562.5z"/>
		<path fill="#DFEBF9" d="M595.3,211.2c-1.8,0-3.3-0.5-4.4-1.4s-1.7-2.3-1.7-4.1c0-2.2,1.1-3.9,3.3-5c2.2-1.2,5.7-2,10.5-2.5
			c0.1-4.2-1.6-6.3-5.1-6.3c-2.2,0-4.5,0.8-6.8,2.3l-0.9-1.4c2.6-1.7,5.3-2.6,7.9-2.6c2.4,0,4.1,0.7,5.2,2.1
			c1.1,1.4,1.6,3.3,1.6,5.6v12.8h-1.7l-0.2-2.6h-0.1C600.1,210.2,597.6,211.2,595.3,211.2z M595.7,209.6c2.1,0,4.5-1.1,7.2-3.3v-6.8
			c-4.3,0.5-7.3,1.2-9.1,2.1c-1.8,1-2.7,2.3-2.7,3.9c0,1.4,0.4,2.4,1.3,3C593.3,209.3,594.4,209.6,595.7,209.6z"/>
		<path fill="#DFEBF9" d="M626.5,209.1h2.9v1.1l-0.3,7.7h-1.7v-7.2h-1h-2h-11.8h-1.4v7.2h-1.7l-0.2-7.7v-1.1h0.4h0.5
			c0.7-0.4,1.4-1.1,1.9-2.4c0.5-1.2,1-3.4,1.4-6.6l1.2-9.4h11.7V209.1z M612.8,209.1h11.8v-16.8h-8.2l-1,8.1
			C614.8,204.7,614,207.6,612.8,209.1z"/>
		<path fill="#DFEBF9" d="M637,185.4c-0.3,0.3-0.8,0.5-1.3,0.5c-0.5,0-0.9-0.2-1.3-0.5c-0.3-0.3-0.5-0.7-0.5-1.2
			c0-0.5,0.2-0.9,0.5-1.2c0.3-0.3,0.8-0.5,1.3-0.5c0.5,0,0.9,0.2,1.3,0.5c0.3,0.3,0.5,0.7,0.5,1.2
			C637.5,184.7,637.3,185.1,637,185.4z M634.7,210.7v-20h2v20H634.7z"/>
		<path fill="#DFEBF9" d="M652.2,190.7h6.6v20h-2V202h-4.9h0l-6.9,8.7h-2.3l7.1-8.9c-1.7-0.3-3.1-0.9-4.2-1.8
			c-1.1-0.9-1.6-2.2-1.6-3.8C644.1,192.5,646.8,190.7,652.2,190.7z M656.8,200.4v-8.2h-4.1c-4.4,0-6.5,1.3-6.5,4
			c0,1.4,0.6,2.4,1.7,3.1c1.2,0.7,2.8,1.1,4.8,1.1H656.8z"/>
	</g>
</g>
<g>
	<path fill="#99BEE6" d="M375.7,156.5V106h6.4v21.2h23.5V106h6.5v50.5h-6.5v-23.8H382v23.8H375.7z"/>
	<path fill="#99BEE6" d="M449.7,152.1c-3.4,3.5-7.5,5.3-12.3,5.3c-4.8,0-8.9-1.8-12.3-5.3c-3.4-3.5-5-8.3-5-14.2
		c0-6.1,1.7-10.9,5-14.4c3.4-3.5,7.5-5.3,12.3-5.3c4.8,0,8.9,1.8,12.3,5.3c3.4,3.5,5,8.3,5,14.4C454.7,143.8,453,148.5,449.7,152.1z
		 M437.4,152.2c3.2,0,5.8-1.3,7.8-4c2-2.6,3-6.1,3-10.4c0-4.3-1-7.8-3-10.5c-2-2.7-4.6-4-7.8-4c-3.2,0-5.8,1.3-7.8,4
		c-2,2.7-3,6.2-3,10.5c0,4.3,1,7.7,3,10.4C431.6,150.8,434.2,152.2,437.4,152.2z"/>
	<path fill="#99BEE6" d="M462.2,170.6V119h5.2l0.5,4.3h0.2c4.2-3.5,8.1-5.2,11.9-5.2c4.7,0,8.4,1.7,10.9,5.1c2.6,3.4,3.8,8.1,3.8,14
		c0,6.1-1.6,11-4.7,14.7s-7,5.5-11.4,5.5c-3.2,0-6.7-1.4-10.4-4.3l0.2,6.5v11H462.2z M477.7,152.1c3.1,0,5.7-1.3,7.7-4s3-6.3,3-10.8
		c0-9.2-3.3-13.8-9.9-13.8c-2.9,0-6.2,1.7-10,5.1v19.6C471.6,150.8,474.7,152.1,477.7,152.1z"/>
	<path fill="#99BEE6" d="M517.7,157.4c-5.1,0-9.4-1.8-12.8-5.3s-5.1-8.3-5.1-14.2c0-5.9,1.7-10.6,5-14.2c3.3-3.6,7.3-5.5,11.8-5.5
		c4.7,0,8.4,1.6,11,4.7s3.9,7.4,3.9,12.8c0,1.5-0.1,2.7-0.2,3.6H506c0.3,4,1.5,7.1,3.7,9.5c2.2,2.4,5.1,3.5,8.7,3.5
		c3.2,0,6.3-1,9.3-2.9l2.2,4.2C526,156.1,521.9,157.4,517.7,157.4z M505.9,134.8h20c0-3.7-0.8-6.6-2.4-8.6c-1.6-2-3.9-3-6.8-3
		c-2.7,0-5.1,1-7.2,3.1C507.5,128.3,506.3,131.2,505.9,134.8z"/>
	<path fill="#DFEBF9" d="M544,157.4c-1.3,0-2.4-0.5-3.3-1.3c-0.9-0.9-1.3-2-1.3-3.4c0-1.4,0.4-2.6,1.3-3.5c0.9-0.9,2-1.4,3.3-1.4
		c1.3,0,2.4,0.5,3.2,1.4c0.9,0.9,1.3,2.1,1.3,3.5c0,1.4-0.5,2.5-1.3,3.4C546.3,156.9,545.3,157.4,544,157.4z"/>
	<path fill="#DFEBF9" d="M571.6,157.4c-13.4,0-20.1-8.1-20.1-24.2v-27h11.4v28.1c0,4.8,0.7,8.2,2.2,10.2c1.4,2,3.6,3,6.5,3
		s5.1-1,6.6-3c1.5-2,2.2-5.4,2.2-10.2v-28.1h10.9v27c0,8.3-1.7,14.4-5,18.3C583.1,155.4,578.2,157.4,571.6,157.4z"/>
	<path fill="#DFEBF9" d="M626.4,156.5l-3.1-11.9H608l-3.1,11.9h-11.5l15.7-50.2h13.6l15.7,50.2H626.4z M610.3,135.7H621l-1.2-4.6
		c-0.3-1-1.6-6.4-4.1-16.2h-0.3c-1.9,8.2-3.2,13.6-3.9,16.2L610.3,135.7z"/>
</g>
<g>
	<path fill="#124688" d="M290.8,49.6c-3.3-2.6-7.6-4.5-13.2-4.5l-206.1,0c0,0-17-0.9-13.1,17.1l35,160.3c0,0,3.9,18,20.6,14.4
		l38.5-11.4l0.2-2c2.4-30.3-0.3-38.8-3.6-53.8c-6.2-28.5-43.9-70.8-47.3-73.8c-3.3-3-4.5-9.9,7.6-3.9c49.9,25,84,70.8,87.2,70.7
		c4.9-0.2,65.9-83.9,90.2-109.5C288.3,51.7,289.6,50.5,290.8,49.6z"/>
	<path fill="#164194" d="M149.2,169.7c-6.2-28.5-43.9-70.8-47.3-73.8c-3.3-3-4.5-9.9,7.6-3.9c49.9,25,84,70.8,87.2,70.7
		c4.9-0.2,65.9-83.9,90.2-109.5c1.4-1.4,2.7-2.6,3.9-3.6c-3.3-2.6-7.6-4.5-13.2-4.5l-206.1,0c0,0-17-0.9-13.1,17.1l35,160.3
		c0,0,3.9,18,20.6,14.4l38.5-11.4l0.2-2C155.2,193.1,152.5,184.6,149.2,169.7"/>
	<path fill="#FFD500" d="M297.1,56.9c-30.5,60.9-49,101.1-52.2,141.3l-92.2,27.2l0.2-2c2.4-30.3-0.3-38.8-3.6-53.8
		c-6.2-28.5-43.9-70.8-47.3-73.8c-3.3-3-4.5-9.9,7.6-3.9c49.9,25,84,70.8,87.2,70.7c4.9-0.2,65.9-83.9,90.2-109.5
		c1.4-1.4,2.7-2.6,3.9-3.6C294.7,52.9,297.1,56.9,297.1,56.9"/>
	<path fill="#FFD500" d="M194.8,68.8c18.5,0,33.5,15.3,33.4,34c0,18.7-15.1,33.9-33.6,33.9c-18.5,0-33.5-15.3-33.4-34
		C161.3,84,176.3,68.8,194.8,68.8"/>
	<path fill="#164194" d="M300,63.6c0,0-0.8-3.1-3-6.7c-30.5,60.9-49,101.1-52.2,141.3L320,176c0,0,16.7-3.7,11.3-21.2L300,63.6z"/>
	<path fill="#124688" d="M244.8,183.7"/>
</g>
</svg>
