<?xml version="1.0" encoding="utf-8"?>
<!-- Generator: Adobe Illustrator 18.0.0, SVG Export Plug-In . SVG Version: 6.00 Build 0)  -->
<!DOCTYPE svg PUBLIC "-//W3C//DTD SVG 1.1//EN" "http://www.w3.org/Graphics/SVG/1.1/DTD/svg11.dtd">
<svg version="1.1" id="Layer_1" xmlns="http://www.w3.org/2000/svg" xmlns:xlink="http://www.w3.org/1999/xlink" x="0px" y="0px"
	 viewBox="0 0 24.5 14" enable-background="new 0 0 24.5 14" xml:space="preserve">
<g id="Capa_1">
</g>
<g>
	<path fill="#8A8C8E" d="M21.8,5.9c0.3-0.5,0.6-0.8,0.8-1.1c1.5-2,2.1-3.2,1.9-3.8l-0.1-0.1c-0.1-0.1-0.2-0.1-0.4-0.2
		c-0.2-0.1-0.5-0.1-0.8,0l-3.7,0c-0.1,0-0.2,0-0.3,0c-0.1,0-0.1,0-0.2,0c0,0,0,0-0.1,0l-0.1,0c0,0-0.1,0.1-0.1,0.1
		c-0.1,0.1-0.1,0.1-0.1,0.2c-0.4,1-0.9,2-1.4,2.9c-0.3,0.5-0.6,1-0.9,1.4c-0.3,0.4-0.5,0.7-0.7,0.9c-0.2,0.2-0.3,0.3-0.5,0.4
		c-0.1,0.1-0.3,0.2-0.3,0.1c-0.1,0-0.1,0-0.2-0.1c-0.1-0.1-0.2-0.2-0.3-0.3c-0.1-0.1-0.1-0.3-0.1-0.5c0-0.2,0-0.4,0-0.5
		c0-0.1,0-0.3,0-0.6c0-0.3,0-0.4,0-0.5c0-0.3,0-0.7,0-1.1c0-0.4,0-0.7,0-0.9c0-0.2,0-0.5,0-0.7c0-0.2,0-0.4,0-0.6
		c0-0.1-0.1-0.3-0.1-0.4c-0.1-0.1-0.1-0.2-0.3-0.3c-0.1-0.1-0.3-0.1-0.4-0.2c-0.5-0.1-1-0.2-1.7-0.2c-1.6,0-2.6,0.1-3.1,0.3
		C8.6,0.4,8.4,0.5,8.3,0.7C8.1,0.9,8.1,1,8.2,1c0.5,0.1,0.9,0.3,1.1,0.5l0.1,0.2C9.4,1.8,9.5,2,9.5,2.3c0.1,0.3,0.1,0.6,0.1,0.9
		c0,0.6,0,1.2,0,1.6c0,0.4-0.1,0.8-0.1,1c0,0.2-0.1,0.4-0.2,0.6C9.3,6.6,9.2,6.7,9.2,6.7c0,0,0,0.1-0.1,0.1C9,6.8,8.9,6.9,8.8,6.9
		c-0.1,0-0.3-0.1-0.4-0.2C8.2,6.6,8,6.4,7.8,6.2C7.7,6,7.4,5.7,7.2,5.3C7,4.9,6.7,4.5,6.5,4L6.3,3.6C6.2,3.4,6,3,5.8,2.6
		C5.6,2.1,5.4,1.7,5.2,1.3C5.1,1.1,5,0.9,4.9,0.8l-0.1,0c0,0-0.1-0.1-0.2-0.1c-0.1,0-0.2-0.1-0.3-0.1l-3.5,0c-0.4,0-0.6,0.1-0.7,0.2
		L0,1c0,0,0,0.1,0,0.2c0,0.1,0,0.2,0.1,0.3C0.6,2.7,1.1,3.9,1.7,5c0.6,1.1,1.1,2,1.6,2.7C3.8,8.4,4.2,9,4.7,9.6
		c0.5,0.6,0.8,1,0.9,1.2c0.1,0.2,0.3,0.3,0.4,0.4l0.3,0.3c0.2,0.2,0.5,0.4,0.9,0.7S8,12.8,8.5,13c0.5,0.3,1,0.5,1.7,0.7
		c0.6,0.2,1.3,0.2,1.9,0.2h1.5c0.3,0,0.5-0.1,0.7-0.3l0.1-0.1c0-0.1,0.1-0.1,0.1-0.2c0-0.1,0-0.2,0-0.4c0-0.4,0-0.7,0.1-1
		c0.1-0.3,0.1-0.5,0.2-0.7c0.1-0.1,0.2-0.3,0.3-0.4c0.1-0.1,0.2-0.2,0.2-0.2c0,0,0.1,0,0.1,0c0.2-0.1,0.4,0,0.7,0.2
		c0.3,0.2,0.5,0.4,0.8,0.7c0.2,0.3,0.5,0.6,0.9,1c0.3,0.4,0.6,0.6,0.9,0.8l0.3,0.2c0.2,0.1,0.4,0.2,0.7,0.3c0.3,0.1,0.5,0.1,0.7,0.1
		l3.3-0.1c0.3,0,0.6-0.1,0.8-0.2c0.2-0.1,0.3-0.2,0.3-0.4c0-0.1,0-0.3,0-0.4c0-0.2-0.1-0.3-0.1-0.3c0-0.1-0.1-0.1-0.1-0.2
		c-0.4-0.8-1.2-1.7-2.4-2.8l0,0l0,0l0,0h0c-0.5-0.5-0.9-0.9-1-1c-0.3-0.3-0.3-0.7-0.2-1C20.7,7.3,21.1,6.7,21.8,5.9z"/>
</g>
</svg>
