<?xml version="1.0" encoding="utf-8"?>
<!-- Generator: Adobe Illustrator 18.0.0, SVG Export Plug-In . SVG Version: 6.00 Build 0)  -->
<!DOCTYPE svg PUBLIC "-//W3C//DTD SVG 1.1//EN" "http://www.w3.org/Graphics/SVG/1.1/DTD/svg11.dtd">
<svg version="1.1" id="Layer_1" xmlns="http://www.w3.org/2000/svg" xmlns:xlink="http://www.w3.org/1999/xlink" x="0px" y="0px"
	 viewBox="249.5 243.5 13 25" enable-background="new 249.5 243.5 13 25" xml:space="preserve">
<g>
	<path fill="#B3AC96" d="M261.5,268.5c-0.2,0-0.4-0.1-0.6-0.2L250,257.4c-0.3-0.3-0.5-0.8-0.5-1.2c0-0.5,0.2-0.9,0.5-1.2l11.1-11.1
		c0.3-0.3,0.8-0.3,1.1,0c0.3,0.3,0.3,0.8,0,1.1L251.1,256c0,0-0.1,0.1-0.1,0.1c0,0,0,0.1,0.1,0.1l10.9,10.9c0.3,0.3,0.3,0.8,0,1.1
		C261.9,268.4,261.7,268.5,261.5,268.5z"/>
</g>
</svg>
