<?xml version="1.0" encoding="utf-8"?>
<!-- Generator: Adobe Illustrator 18.0.0, SVG Export Plug-In . SVG Version: 6.00 Build 0)  -->
<!DOCTYPE svg PUBLIC "-//W3C//DTD SVG 1.1//EN" "http://www.w3.org/Graphics/SVG/1.1/DTD/svg11.dtd">
<svg version="1.1" id="Layer_1" xmlns="http://www.w3.org/2000/svg" xmlns:xlink="http://www.w3.org/1999/xlink" x="0px" y="0px"
	 viewBox="0 0 24 24" enable-background="new 0 0 24 24" xml:space="preserve">
<path fill="#E1E0B4" d="M12,0C5.4,0,0,5.4,0,12s5.4,12,12,12s12-5.4,12-12S18.6,0,12,0z M15.8,6.8c-0.7,0-1.5,0-1.8,0
	c-0.4,0-0.7,0.4-0.7,0.6c0,0.3,0.1,2,0.1,2s2.1,0,2.4,0c-0.1,1.4-0.3,2.5-0.3,2.5l-2.2,0v8H9.9l0-8l-1.7,0V9.5h1.7c0,0,0-2,0-2.4
	C9.9,6.7,9.8,4,13.3,4c0.5,0,1.5,0,2.5,0C15.8,5.2,15.8,6.4,15.8,6.8z"/>
</svg>
