<?xml version="1.0" encoding="utf-8"?>
<!-- Generator: Adobe Illustrator 18.0.0, SVG Export Plug-In . SVG Version: 6.00 Build 0)  -->
<!DOCTYPE svg PUBLIC "-//W3C//DTD SVG 1.1//EN" "http://www.w3.org/Graphics/SVG/1.1/DTD/svg11.dtd">
<svg version="1.1" id="Layer_1" xmlns="http://www.w3.org/2000/svg" xmlns:xlink="http://www.w3.org/1999/xlink" x="0px" y="0px"
	 viewBox="0 0 13 13" enable-background="new 0 0 13 13" xml:space="preserve">
<rect fill="none" width="13" height="13"/>
<g opacity="0.6">
	<path fill="#FFFFFF" d="M5.3,0.8C5.1,0.8,5,0.8,4.9,0.9L0.2,4.6C0.1,4.7,0.1,5,0.2,5.1l4.7,3.6C4.9,8.8,5,8.9,5.1,8.9
		c0.1,0,0.1,0,0.1,0c0.1-0.1,0.2-0.2,0.2-0.4V6.3c5,0,7.2,1.4,6.8,5.9c2.1-7.2-1.9-8.8-6.8-8.8V1.2C5.5,1,5.4,0.9,5.3,0.8z"/>
</g>
</svg>
