<?xml version="1.0" encoding="utf-8"?>
<!-- Generator: Adobe Illustrator 19.1.0, SVG Export Plug-In . SVG Version: 6.00 Build 0)  -->
<svg version="1.1" id="Layer_1" xmlns="http://www.w3.org/2000/svg" xmlns:xlink="http://www.w3.org/1999/xlink" x="0px" y="0px"
	 viewBox="0 0 13 25" style="enable-background:new 0 0 13 25;" xml:space="preserve">
<style type="text/css">
	.st0{fill:#919799;}
</style>
<g>
	<path class="st0" d="M12,25c-0.2,0-0.4-0.1-0.6-0.2L0.5,13.9C0.2,13.5,0,13.1,0,12.6c0-0.5,0.2-0.9,0.5-1.2L11.7,0.2
		c0.3-0.3,0.8-0.3,1.1,0c0.3,0.3,0.3,0.8,0,1.1L1.6,12.5c0,0-0.1,0.1-0.1,0.1c0,0,0,0.1,0.1,0.1l10.9,10.9c0.3,0.3,0.3,0.8,0,1.1
		C12.4,24.9,12.2,25,12,25z"/>
</g>
</svg>
