<?xml version="1.0" encoding="utf-8"?>
<!-- Generator: Adobe Illustrator 19.1.0, SVG Export Plug-In . SVG Version: 6.00 Build 0)  -->
<svg version="1.1" id="Capa_1" xmlns="http://www.w3.org/2000/svg" xmlns:xlink="http://www.w3.org/1999/xlink" x="0px" y="0px"
	 viewBox="392.4 269.1 57 57" style="enable-background:new 392.4 269.1 57 57;" xml:space="preserve">
<style type="text/css">
	.st0{fill:#E1E0B4;}
</style>
<g>
	<path class="st0" d="M412,303.9L412,303.9c-0.6-0.6-1.5-0.6-2,0l-10.7,10.7l0-3.4c0-0.4-0.2-0.8-0.4-1c-0.3-0.3-0.6-0.4-1-0.4h-3.9
		c-0.8,0-1.4,0.6-1.4,1.4l0,13.5c0,0.8,0.6,1.4,1.4,1.4l13.5,0c0.4,0,0.8-0.2,1-0.4c0.3-0.3,0.4-0.6,0.4-1v-3.9c0-0.4-0.2-0.8-0.4-1
		c-0.3-0.3-0.6-0.4-1-0.4H404l10.7-10.7c0.3-0.3,0.4-0.6,0.4-1c0-0.4-0.2-0.8-0.4-1L412,303.9z"/>
	<path class="st0" d="M429.9,291.4c0.3,0.3,0.6,0.4,1,0.4c0.4,0,0.8-0.2,1-0.4l10.7-10.7v3.4c0,0.4,0.2,0.8,0.4,1
		c0.3,0.3,0.6,0.4,1,0.4h3.9c0.4,0,0.8-0.2,1-0.4c0.3-0.3,0.4-0.6,0.4-1l0-13.5c0-0.8-0.6-1.4-1.4-1.4l-13.5,0
		c-0.8,0-1.4,0.6-1.4,1.4v3.9c0,0.4,0.2,0.8,0.4,1c0.3,0.3,0.6,0.4,1,0.4l3.4,0l-10.7,10.7c-0.6,0.6-0.6,1.5,0,2L429.9,291.4z"/>
	<path class="st0" d="M393.9,285.6h3.9c0.4,0,0.8-0.2,1-0.4c0.3-0.3,0.4-0.6,0.4-1v-3.4l10.7,10.7c0.3,0.3,0.6,0.4,1,0.4
		c0.4,0,0.8-0.2,1-0.4l2.7-2.7c0.6-0.6,0.6-1.5,0-2L404,275.9h3.4c0.4,0,0.8-0.2,1-0.4c0.3-0.3,0.4-0.6,0.4-1v-3.9
		c0-0.8-0.6-1.4-1.4-1.4l-13.5,0c-0.8,0-1.4,0.6-1.4,1.4l0,13.5c0,0.4,0.2,0.8,0.4,1C393.1,285.4,393.5,285.6,393.9,285.6z"/>
	<path class="st0" d="M448,309.7l-3.9,0c-0.4,0-0.8,0.2-1,0.4c-0.3,0.3-0.4,0.6-0.4,1v3.4L432,303.9c-0.6-0.6-1.5-0.6-2,0l-2.7,2.7
		c-0.3,0.3-0.4,0.6-0.4,1c0,0.4,0.2,0.8,0.4,1l10.7,10.7h-3.4c-0.4,0-0.8,0.2-1,0.4c-0.3,0.3-0.4,0.6-0.4,1v3.9c0,0.4,0.2,0.8,0.4,1
		c0.3,0.3,0.6,0.4,1,0.4l13.5,0c0.8,0,1.4-0.6,1.4-1.4l0-13.5C449.4,310.4,448.8,309.7,448,309.7z"/>
</g>
</svg>
