<?xml version="1.0" encoding="utf-8"?>
<!-- Generator: Adobe Illustrator 18.0.0, SVG Export Plug-In . SVG Version: 6.00 Build 0)  -->
<!DOCTYPE svg PUBLIC "-//W3C//DTD SVG 1.1//EN" "http://www.w3.org/Graphics/SVG/1.1/DTD/svg11.dtd">
<svg version="1.1" id="Layer_1" xmlns="http://www.w3.org/2000/svg" xmlns:xlink="http://www.w3.org/1999/xlink" x="0px" y="0px"
	 viewBox="0 0 26 26" enable-background="new 0 0 26 26" xml:space="preserve">
<g>
	<path fill="#FFFFFF" d="M13,0C5.8,0,0,5.8,0,13s5.8,13,13,13c7.2,0,13-5.8,13-13S20.2,0,13,0z M9.9,18.9H8c-1.1,0-2-0.9-2-2v-1.9
		h0.7v1.9c0,0.7,0.6,1.3,1.3,1.3h1.9V18.9z M9.9,7.8H8c-0.7,0-1.3,0.6-1.3,1.3v1.9H6V9.2c0-1.1,0.9-2,2-2h1.9V7.8z M20,16.8
		c0,1.1-0.9,2-2,2h-1.9v-0.7H18c0.7,0,1.3-0.6,1.3-1.3v-1.9H20V16.8z M20,11.1h-0.7V9.2c0-0.7-0.6-1.3-1.3-1.3h-1.9V7.1H18
		c1.1,0,2,0.9,2,2V11.1z"/>
</g>
</svg>
