<?xml version="1.0" encoding="utf-8"?>
<!-- Generator: Adobe Illustrator 18.0.0, SVG Export Plug-In . SVG Version: 6.00 Build 0)  -->
<!DOCTYPE svg PUBLIC "-//W3C//DTD SVG 1.1//EN" "http://www.w3.org/Graphics/SVG/1.1/DTD/svg11.dtd">
<svg version="1.1" id="Layer_1" xmlns="http://www.w3.org/2000/svg" xmlns:xlink="http://www.w3.org/1999/xlink" x="0px" y="0px"
	 viewBox="0 0 26 26" enable-background="new 0 0 26 26" xml:space="preserve">
<g>
	<path fill="#FFFFFF" d="M13,0C5.8,0,0,5.8,0,13s5.8,13,13,13s13-5.8,13-13S20.2,0,13,0z M21.7,21.7c-1.1,1.1-2.4,2-3.9,2.6
		c-1.5,0.6-3.1,1-4.8,1c-1.7,0-3.3-0.3-4.8-1c-1.5-0.6-2.8-1.5-3.9-2.6c-1.1-1.1-2-2.4-2.6-3.9c-0.6-1.5-1-3.1-1-4.8s0.3-3.3,1-4.8
		c0.6-1.5,1.5-2.8,2.6-3.9c1.1-1.1,2.4-2,3.9-2.6c1.5-0.6,3.1-1,4.8-1c1.7,0,3.3,0.3,4.8,1c1.5,0.6,2.8,1.5,3.9,2.6
		c1.1,1.1,2,2.4,2.6,3.9c0.6,1.5,1,3.1,1,4.8s-0.3,3.3-1,4.8C23.7,19.2,22.8,20.6,21.7,21.7z"/>
	<path fill="#FFFFFF" d="M6,9.2v1.9h0.7V9.2c0-0.7,0.6-1.3,1.3-1.3h1.9V7.1H8C6.9,7.1,6,8,6,9.2z"/>
	<path fill="#FFFFFF" d="M18,7.1h-1.9v0.7H18c0.7,0,1.3,0.6,1.3,1.3v1.9H20V9.2C20,8,19.1,7.1,18,7.1z"/>
	<path fill="#FFFFFF" d="M6.7,16.8v-1.9H6v1.9c0,1.1,0.9,2,2,2h1.9v-0.7H8C7.3,18.2,6.7,17.6,6.7,16.8z"/>
	<path fill="#FFFFFF" d="M19.3,16.8c0,0.7-0.6,1.3-1.3,1.3h-1.9v0.7H18c1.1,0,2-0.9,2-2v-1.9h-0.7V16.8z"/>
</g>
</svg>
