<?xml version="1.0" encoding="utf-8"?>
<!-- Generator: Adobe Illustrator 19.1.0, SVG Export Plug-In . SVG Version: 6.00 Build 0)  -->
<svg version="1.1" id="Layer_1" xmlns="http://www.w3.org/2000/svg" xmlns:xlink="http://www.w3.org/1999/xlink" x="0px" y="0px"
	 viewBox="0 0 22 22" style="enable-background:new 0 0 22 22;" xml:space="preserve">
<style type="text/css">
	.st0{fill:#909799;}
</style>
<g>
	<g>
		<path class="st0" d="M11,22C4.9,22,0,17.1,0,11C0,4.9,4.9,0,11,0c6.1,0,11,4.9,11,11C22,17.1,17.1,22,11,22z M11,0.6
			C5.3,0.6,0.6,5.3,0.6,11S5.3,21.4,11,21.4S21.4,16.7,21.4,11S16.7,0.6,11,0.6z"/>
	</g>
	<g>
		<path class="st0" d="M9.1,6.6c0,0.4,0,2.1,0,2.1H7.6V11l1.5,0l0,7.2h3V11l1.9,0c0,0,0.1-1,0.2-2.3c-0.3,0-2.2,0-2.2,0s0-1.6,0-1.8
			c0-0.2,0.3-0.6,0.6-0.6c0.3,0,1,0,1.6,0c0-0.3,0-1.5,0-2.5c-0.8,0-1.8,0-2.2,0C9.1,3.8,9.1,6.3,9.1,6.6z"/>
	</g>
</g>
</svg>
