<?xml version="1.0" encoding="utf-8"?>
<!-- Generator: Adobe Illustrator 19.1.0, SVG Export Plug-In . SVG Version: 6.00 Build 0)  -->
<svg version="1.1" id="Layer_1" xmlns="http://www.w3.org/2000/svg" xmlns:xlink="http://www.w3.org/1999/xlink" x="0px" y="0px"
	 viewBox="0 0 15 12" style="enable-background:new 0 0 15 12;" xml:space="preserve">
<style type="text/css">
	.st0{fill:#909799;}
</style>
<g>
	<path class="st0" d="M7.5,12c-0.9,0-1.9-0.2-2.7-0.6c-0.1,0-0.1-0.1-0.2-0.2c0-0.1,0-0.2,0.1-0.3l0.6-0.8C5.3,10.1,5.4,10,5.5,10
		c0,0,0.1,0,0.1,0c0.6,0.3,1.2,0.4,1.9,0.4c2.5,0,4.5-2,4.5-4.5V5.7h-1.2c-0.1,0-0.2-0.1-0.3-0.2c-0.1-0.1,0-0.2,0-0.3l2-2.6
		c0.1-0.1,0.1-0.1,0.2-0.1s0.2,0,0.2,0.1l2,2.6C15,5.3,15,5.4,15,5.6c-0.1,0.1-0.2,0.2-0.3,0.2h-1.2V6C13.5,9.3,10.8,12,7.5,12z"/>
	<path class="st0" d="M2.3,9.5c-0.1,0-0.2,0-0.2-0.1l-2-2.6C0,6.7,0,6.6,0,6.4c0.1-0.1,0.2-0.2,0.3-0.2h1.2V6c0-3.3,2.7-6,6-6
		c0.9,0,1.9,0.2,2.7,0.6c0.1,0,0.1,0.1,0.2,0.2c0,0.1,0,0.2-0.1,0.3L9.7,1.9C9.7,1.9,9.6,2,9.5,2c0,0-0.1,0-0.1,0
		C8.8,1.7,8.1,1.5,7.5,1.5C5,1.5,3,3.5,3,6v0.3h1.2c0.1,0,0.2,0.1,0.3,0.2c0.1,0.1,0,0.2,0,0.3l-2,2.6C2.5,9.5,2.4,9.5,2.3,9.5z"/>
</g>
</svg>
