<?xml version="1.0" encoding="utf-8"?>
<!-- Generator: Adobe Illustrator 18.0.0, SVG Export Plug-In . SVG Version: 6.00 Build 0)  -->
<!DOCTYPE svg PUBLIC "-//W3C//DTD SVG 1.1//EN" "http://www.w3.org/Graphics/SVG/1.1/DTD/svg11.dtd">
<svg version="1.1" id="Layer_1" xmlns="http://www.w3.org/2000/svg" xmlns:xlink="http://www.w3.org/1999/xlink" x="0px" y="0px"
	 viewBox="0 0 70 70" enable-background="new 0 0 70 70" xml:space="preserve">
<g>
	<path fill="#FFFFFF" d="M35,0C15.7,0,0,15.7,0,35s15.7,35,35,35s35-15.7,35-35S54.3,0,35,0z M58.8,58.9c-3.1,3.1-6.7,5.5-10.7,7.2
		c-4.2,1.8-8.6,2.6-13.1,2.6s-9-0.9-13.1-2.6c-4-1.7-7.6-4.1-10.7-7.2c-3.1-3.1-5.5-6.7-7.2-10.7C2.2,44,1.3,39.6,1.3,35
		s0.9-9,2.6-13.1c1.7-4,4.1-7.6,7.2-10.7c3.1-3.1,6.7-5.5,10.7-7.2C26,2.2,30.4,1.3,35,1.3S44,2.2,48.1,4c4,1.7,7.6,4.1,10.7,7.2
		c3.1,3.1,5.5,6.7,7.2,10.7c1.8,4.2,2.6,8.6,2.6,13.1s-0.9,9-2.6,13.1C64.4,52.2,61.9,55.8,58.8,58.9z"/>
	<path fill="#FFFFFF" d="M46.5,39c-0.4,0-0.6,0.3-0.6,0.6V46c0,0.6-0.5,1.1-1.1,1.1H25.3c-0.6,0-1.1-0.5-1.1-1.1v-22
		c0-0.6,0.5-1.1,1.1-1.1h19.4c0.6,0,1.1,0.5,1.1,1.1v6.5c0,0.4,0.3,0.6,0.6,0.6c0.4,0,0.6-0.3,0.6-0.6v-6.5c0-1.3-1.1-2.4-2.4-2.4
		H25.3c-1.3,0-2.4,1.1-2.4,2.4v22c0,1.3,1.1,2.4,2.4,2.4h19.4c1.3,0,2.4-1.1,2.4-2.4v-6.4C47.1,39.2,46.8,39,46.5,39z"/>
	<path fill="#FFFFFF" d="M57.1,34.9C57.1,34.8,57.1,34.8,57.1,34.9c0-0.1,0-0.1-0.1-0.1c0,0,0,0,0-0.1c0,0,0-0.1-0.1-0.1
		c0,0,0,0,0,0c0,0,0,0,0,0c0,0,0,0,0,0l-2.9-2.9c-0.2-0.2-0.7-0.2-0.9,0c-0.2,0.2-0.2,0.7,0,0.9l1.8,1.8H35c-0.4,0-0.6,0.3-0.6,0.6
		c0,0.4,0.3,0.6,0.6,0.6h20l-1.8,1.8c-0.2,0.2-0.2,0.7,0,0.9c0.1,0.1,0.3,0.2,0.5,0.2s0.3-0.1,0.5-0.2l2.9-2.9c0,0,0,0,0,0
		c0,0,0.1-0.1,0.1-0.1c0,0,0,0,0,0c0,0,0,0,0,0c0,0,0,0,0-0.1c0,0,0,0,0-0.1c0,0,0,0,0-0.1C57.2,35.1,57.2,35,57.1,34.9
		C57.1,34.9,57.1,34.9,57.1,34.9z"/>
</g>
</svg>
