<?xml version="1.0" encoding="utf-8"?>
<!-- Generator: Adobe Illustrator 18.0.0, SVG Export Plug-In . SVG Version: 6.00 Build 0)  -->
<!DOCTYPE svg PUBLIC "-//W3C//DTD SVG 1.1//EN" "http://www.w3.org/Graphics/SVG/1.1/DTD/svg11.dtd">
<svg version="1.1" id="Layer_1" xmlns="http://www.w3.org/2000/svg" xmlns:xlink="http://www.w3.org/1999/xlink" x="0px" y="0px"
	 viewBox="0 0 70 70" enable-background="new 0 0 70 70" xml:space="preserve">
<g>
	<path fill="#FFFFFF" d="M35,0C15.7,0,0,15.7,0,35s15.7,35,35,35s35-15.7,35-35S54.3,0,35,0z M47.1,46c0,1.3-1.1,2.4-2.4,2.4H25.3
		c-1.3,0-2.4-1.1-2.4-2.4V24c0-1.3,1.1-2.4,2.4-2.4h19.4c1.3,0,2.4,1.1,2.4,2.4v6.5c0,0.4-0.3,0.6-0.6,0.6c-0.4,0-0.6-0.3-0.6-0.6
		V24c0-0.6-0.5-1.1-1.1-1.1H25.3c-0.6,0-1.1,0.5-1.1,1.1v22c0,0.6,0.5,1.1,1.1,1.1h19.4c0.6,0,1.1-0.5,1.1-1.1v-6.4
		c0-0.4,0.3-0.6,0.6-0.6c0.4,0,0.6,0.3,0.6,0.6V46z M57.1,35.1C57.1,35.2,57.1,35.2,57.1,35.1c0,0.1,0,0.1,0,0.1c0,0,0,0,0,0.1
		c0,0,0,0,0,0c0,0,0,0,0,0c0,0,0,0.1-0.1,0.1c0,0,0,0,0,0l-2.9,2.9c-0.1,0.1-0.3,0.2-0.5,0.2s-0.3-0.1-0.5-0.2
		c-0.2-0.2-0.2-0.7,0-0.9l1.8-1.8H35c-0.4,0-0.6-0.3-0.6-0.6c0-0.4,0.3-0.6,0.6-0.6h20l-1.8-1.8c-0.2-0.2-0.2-0.7,0-0.9
		c0.2-0.2,0.7-0.2,0.9,0l2.9,2.9c0,0,0,0,0,0c0,0,0,0,0,0c0,0,0,0,0,0c0,0,0.1,0.1,0.1,0.1c0,0,0,0,0,0.1c0,0,0,0,0,0.1
		c0,0,0,0,0,0.1c0,0,0,0,0,0.1C57.2,35,57.2,35.1,57.1,35.1z"/>
</g>
</svg>
