<?xml version="1.0" encoding="utf-8"?>
<!-- Generator: Adobe Illustrator 18.0.0, SVG Export Plug-In . SVG Version: 6.00 Build 0)  -->
<!DOCTYPE svg PUBLIC "-//W3C//DTD SVG 1.1//EN" "http://www.w3.org/Graphics/SVG/1.1/DTD/svg11.dtd">
<svg version="1.1" id="Layer_1" xmlns="http://www.w3.org/2000/svg" xmlns:xlink="http://www.w3.org/1999/xlink" x="0px" y="0px"
	 viewBox="0 0 19 14" enable-background="new 0 0 19 14" xml:space="preserve">
<path fill="#8A8C8E" d="M15.3,0H3.7C1.8,0,0.2,1.6,0.2,3.5v7c0,1.9,1.6,3.5,3.5,3.5h11.6c1.9,0,3.5-1.6,3.5-3.5v-7
	C18.8,1.6,17.2,0,15.3,0z M17.6,10.5c0,0.6-0.2,1.2-0.7,1.6c-0.4,0.4-1,0.7-1.6,0.7H3.7c-0.6,0-1.2-0.2-1.6-0.7
	c-0.4-0.4-0.7-1-0.7-1.6v-7c0-0.6,0.2-1.2,0.7-1.6s1-0.7,1.6-0.7h11.6c0.6,0,1.2,0.2,1.6,0.7c0.4,0.4,0.7,1,0.7,1.6V10.5z M7.2,11.6
	L13,7L7.2,2.3V11.6z"/>
</svg>
