<?xml version="1.0" encoding="utf-8"?>
<!-- Generator: Adobe Illustrator 18.0.0, SVG Export Plug-In . SVG Version: 6.00 Build 0)  -->
<!DOCTYPE svg PUBLIC "-//W3C//DTD SVG 1.1//EN" "http://www.w3.org/Graphics/SVG/1.1/DTD/svg11.dtd">
<svg version="1.1" id="Layer_1" xmlns="http://www.w3.org/2000/svg" xmlns:xlink="http://www.w3.org/1999/xlink" x="0px" y="0px"
	 viewBox="0 0 30 17" enable-background="new 0 0 30 17" xml:space="preserve">
<path fill="#F9CA0E" d="M16.1,1.6c-2.2-2.2-5.7-2.2-7.9,0c-2.2,2.2-2.2,5.7,0,7.9c1.9,1.9,4.9,2.2,7.1,0.7l1.4,1.4
	c-0.3,0.4-0.2,0.9,0.1,1.3l3.8,3.8c0.4,0.4,1,0.4,1.4,0l1.2-1.2c0.4-0.4,0.4-1,0-1.4l-3.8-3.8c-0.4-0.4-1-0.4-1.3-0.1l-1.4-1.4
	C18.2,6.6,18,3.6,16.1,1.6z M9.3,8.4c-1.5-1.5-1.5-4,0-5.6c1.5-1.5,4-1.5,5.6,0c1.5,1.5,1.5,4,0,5.6C13.3,9.9,10.9,9.9,9.3,8.4z"/>
</svg>
