<?xml version="1.0" encoding="utf-8"?>
<!-- Generator: Adobe Illustrator 18.0.0, SVG Export Plug-In . SVG Version: 6.00 Build 0)  -->
<!DOCTYPE svg PUBLIC "-//W3C//DTD SVG 1.1//EN" "http://www.w3.org/Graphics/SVG/1.1/DTD/svg11.dtd">
<svg version="1.1" id="Layer_1" xmlns="http://www.w3.org/2000/svg" xmlns:xlink="http://www.w3.org/1999/xlink" x="0px" y="0px"
	 viewBox="0 0 24 14" enable-background="new 0 0 24 14" xml:space="preserve">
<g>
	<path fill="#DFEDFD" d="M21.1,5.9c0.3-0.4,0.6-0.8,0.8-1.1c1.4-1.9,2.1-3.1,1.9-3.6l-0.1-0.1c0-0.1-0.2-0.1-0.4-0.2
		c-0.2-0.1-0.5-0.1-0.8,0l-3.6,0c-0.1,0-0.2,0-0.2,0c-0.1,0-0.1,0-0.2,0c0,0,0,0-0.1,0l0,0c0,0-0.1,0.1-0.1,0.1
		c0,0.1-0.1,0.1-0.1,0.2c-0.4,1-0.8,1.9-1.3,2.8c-0.3,0.5-0.6,1-0.8,1.3c-0.3,0.4-0.5,0.7-0.6,0.8c-0.2,0.2-0.3,0.3-0.5,0.4
		c-0.1,0.1-0.2,0.2-0.3,0.1c-0.1,0-0.1,0-0.2,0c-0.1-0.1-0.2-0.2-0.3-0.3C14,6.3,14,6.2,14,6c0-0.2,0-0.4,0-0.5c0-0.1,0-0.3,0-0.6
		c0-0.3,0-0.4,0-0.5c0-0.3,0-0.7,0-1c0-0.4,0-0.7,0-0.9c0-0.2,0-0.4,0-0.7c0-0.2,0-0.4,0-0.6c0-0.1-0.1-0.3-0.1-0.4
		c-0.1-0.1-0.1-0.2-0.3-0.3c-0.1-0.1-0.3-0.1-0.4-0.2c-0.4-0.1-1-0.2-1.7-0.2c-1.5,0-2.5,0.1-3,0.3C8.3,0.6,8.2,0.7,8,0.9
		C7.9,1.1,7.9,1.2,8,1.2C8.5,1.2,8.8,1.4,9,1.7l0.1,0.1C9.2,2,9.2,2.2,9.3,2.4C9.3,2.7,9.4,3,9.4,3.3c0,0.6,0,1.1,0,1.6
		s-0.1,0.8-0.1,1c0,0.2-0.1,0.4-0.2,0.6C9,6.6,9,6.7,9,6.7c0,0,0,0.1-0.1,0.1c-0.1,0-0.2,0.1-0.3,0.1S8.3,6.8,8.1,6.7
		C8,6.6,7.8,6.4,7.6,6.2C7.4,6,7.2,5.7,7,5.4C6.8,5,6.6,4.6,6.3,4.1L6.1,3.7C6,3.5,5.8,3.1,5.6,2.7C5.4,2.3,5.2,1.8,5.1,1.4
		C5,1.2,4.9,1.1,4.8,1L4.7,1c0,0-0.1-0.1-0.2-0.1c-0.1,0-0.2-0.1-0.3-0.1l-3.4,0c-0.3,0-0.6,0.1-0.7,0.2l0,0.1c0,0,0,0.1,0,0.2
		c0,0.1,0,0.2,0.1,0.3C0.6,2.8,1.1,4,1.7,5c0.6,1.1,1.1,2,1.5,2.6c0.4,0.7,0.9,1.3,1.3,1.9c0.4,0.6,0.7,1,0.9,1.1
		C5.6,10.8,5.7,11,5.8,11l0.3,0.3C6.3,11.5,6.6,11.8,7,12c0.4,0.3,0.8,0.6,1.3,0.8c0.5,0.3,1,0.5,1.6,0.7c0.6,0.2,1.2,0.2,1.8,0.2
		h1.4c0.3,0,0.5-0.1,0.7-0.3l0-0.1c0,0,0.1-0.1,0.1-0.2c0-0.1,0-0.2,0-0.3c0-0.4,0-0.7,0.1-1c0.1-0.3,0.1-0.5,0.2-0.6
		c0.1-0.1,0.2-0.3,0.3-0.4c0.1-0.1,0.2-0.2,0.2-0.2c0,0,0.1,0,0.1,0c0.2-0.1,0.4,0,0.7,0.2c0.3,0.2,0.5,0.4,0.8,0.7
		c0.2,0.3,0.5,0.6,0.8,1c0.3,0.4,0.6,0.6,0.9,0.8l0.2,0.1c0.2,0.1,0.4,0.2,0.6,0.3c0.3,0.1,0.5,0.1,0.7,0.1l3.2,0
		c0.3,0,0.6-0.1,0.7-0.2c0.2-0.1,0.3-0.2,0.3-0.3c0-0.1,0-0.3,0-0.4c0-0.2-0.1-0.3-0.1-0.3c0-0.1-0.1-0.1-0.1-0.2
		c-0.4-0.7-1.2-1.7-2.4-2.7l0,0l0,0l0,0h0c-0.5-0.5-0.9-0.8-1-1c-0.3-0.3-0.3-0.7-0.2-1C20.1,7.3,20.5,6.7,21.1,5.9z"/>
</g>
</svg>
