<?xml version="1.0" encoding="utf-8"?>
<!-- Generator: Adobe Illustrator 18.0.0, SVG Export Plug-In . SVG Version: 6.00 Build 0)  -->
<!DOCTYPE svg PUBLIC "-//W3C//DTD SVG 1.1//EN" "http://www.w3.org/Graphics/SVG/1.1/DTD/svg11.dtd">
<svg version="1.1" id="Layer_1" xmlns="http://www.w3.org/2000/svg" xmlns:xlink="http://www.w3.org/1999/xlink" x="0px" y="0px"
	 viewBox="0 0 14 14" enable-background="new 0 0 14 14" xml:space="preserve">
<g id="c40_rss" class="icon">
	<path fill="#8A8C8E" d="M2.1,9.8C0.9,9.8,0,10.8,0,11.9C0,13.1,0.9,14,2.1,14s2.1-0.9,2.1-2.1C4.2,10.8,3.2,9.8,2.1,9.8z"/>
	<path fill="#8A8C8E" d="M0.2,4.6C0.1,4.6,0,4.7,0,4.8v2.6c0,0.1,0.1,0.2,0.2,0.2c3.4,0,6.1,2.8,6.1,6.1c0,0.1,0.1,0.2,0.2,0.2h2.6
		h0c0.1,0,0.2-0.1,0.2-0.2l0-0.1C9.4,8.7,5.3,4.6,0.2,4.6z"/>
	<path fill="#8A8C8E" d="M14,13.7C14,6.1,7.8,0,0.2,0C0.1,0,0,0.1,0,0.2v2.7C0,3,0.1,3.1,0.2,3.1c5.9,0,10.6,4.8,10.6,10.6
		c0,0.1,0.1,0.2,0.2,0.2h2.7h0C13.9,14,14,13.9,14,13.7L14,13.7z"/>
</g>
<g id="Capa_1">
</g>
</svg>
