<?xml version="1.0" encoding="utf-8"?>
<!-- Generator: Adobe Illustrator 18.0.0, SVG Export Plug-In . SVG Version: 6.00 Build 0)  -->
<!DOCTYPE svg PUBLIC "-//W3C//DTD SVG 1.1//EN" "http://www.w3.org/Graphics/SVG/1.1/DTD/svg11.dtd">
<svg version="1.1" id="Layer_1" xmlns="http://www.w3.org/2000/svg" xmlns:xlink="http://www.w3.org/1999/xlink" x="0px" y="0px"
	 viewBox="0 0 14 14" enable-background="new 0 0 14 14" xml:space="preserve">
<g id="Capa_1">
</g>
<path fill="#8A8C8E" d="M11.9,2.1C13.3,3.4,14,5.1,14,7s-0.7,3.6-2.1,4.9C10.6,13.3,8.9,14,7,14s-3.6-0.7-4.9-2.1
	C0.7,10.6,0,8.9,0,7s0.7-3.6,2.1-4.9S5.1,0,7,0S10.6,0.7,11.9,2.1z M11.3,11.3c0.9-0.9,1.4-1.9,1.7-3.1c-0.2,0.3-0.4,0.4-0.5-0.2
	c-0.1-1-1-0.4-1.6-0.7c-0.6,0.4-2-0.8-1.7,0.6c0.4,0.6,1.9-0.8,1.1,0.5c-0.5,0.9-1.8,2.9-1.6,3.9c0,1.5-1.5,0.3-2.1-0.2
	c-0.4-1-0.1-2.7-1.1-3.2c-1,0-1.9-0.1-2.3-1.3C3,6.7,3.5,5.5,4.4,5.3c1.3-0.8,1.7,0.9,2.9,1c0.4-0.4,1.4-0.5,1.5-1
	c-0.8-0.1,1-0.7-0.1-1C8.2,4.4,7.8,5,8.1,5.4C6.9,5.7,6.9,3.8,5.8,4.4c0,1-1.8,0.3-0.6,0.1c0.4-0.2-0.7-0.7-0.1-0.6
	c0.3,0,1.2-0.4,1-0.6c0.5-0.3,1,0.8,1.5,0C8,2.7,7.4,2.6,7,2.9C6.7,2.6,7.4,1.9,8.1,1.6c0.2-0.1,0.4-0.1,0.6-0.1
	c0.3,0.4,0.9,0.4,1,0C8.8,1.1,7.9,0.9,7,0.9c-1.3,0-2.6,0.4-3.7,1.2c0.3,0.1,0.4,0.3,0.2,0.5C3.3,3.2,2.4,4.1,1.7,3.9
	C1.3,4.6,1,5.4,0.9,6.1c0.6,0.2,0.8,0.6,0.6,0.8C1.3,7.2,1.1,7.6,1,8c0.2,1.3,0.8,2.4,1.7,3.3c1.2,1.2,2.7,1.8,4.3,1.8
	C8.6,13.1,10.2,12.5,11.3,11.3z"/>
</svg>
