<?xml version="1.0" encoding="utf-8"?>
<!-- Generator: Adobe Illustrator 18.0.0, SVG Export Plug-In . SVG Version: 6.00 Build 0)  -->
<!DOCTYPE svg PUBLIC "-//W3C//DTD SVG 1.1//EN" "http://www.w3.org/Graphics/SVG/1.1/DTD/svg11.dtd">
<svg version="1.1" id="Layer_1" xmlns="http://www.w3.org/2000/svg" xmlns:xlink="http://www.w3.org/1999/xlink" x="0px" y="0px"
	 viewBox="0 0 10.2 14" enable-background="new 0 0 10.2 14" xml:space="preserve">
<g id="Capa_1">
</g>
<path fill="#8A8C8E" d="M8.9,5.1H8.6V3.4C8.6,1.5,7.1,0,5.2,0H5C3.2,0,1.6,1.5,1.6,3.4v1.7H1.3C0.6,5.1,0,5.7,0,6.4v6.3
	C0,13.4,0.6,14,1.3,14h7.6c0.7,0,1.3-0.6,1.3-1.3V6.4C10.2,5.7,9.6,5.1,8.9,5.1z M5.7,9.6l0.3,2c0,0.1,0,0.1-0.1,0.1H4.4
	c-0.1,0-0.1-0.1-0.1-0.1l0.3-2C4.1,9.4,3.9,9,3.9,8.5c0-0.7,0.6-1.3,1.3-1.3c0.7,0,1.3,0.6,1.3,1.3C6.4,9,6.1,9.4,5.7,9.6z M7.2,5.1
	H3V3.4c0-1.1,0.9-2,2-2h0.2c1.1,0,2,0.9,2,2V5.1z"/>
</svg>
