<?xml version="1.0" encoding="utf-8"?>
<!-- Generator: Adobe Illustrator 18.0.0, SVG Export Plug-In . SVG Version: 6.00 Build 0)  -->
<!DOCTYPE svg PUBLIC "-//W3C//DTD SVG 1.1//EN" "http://www.w3.org/Graphics/SVG/1.1/DTD/svg11.dtd">
<svg version="1.1" id="Layer_1" xmlns="http://www.w3.org/2000/svg" xmlns:xlink="http://www.w3.org/1999/xlink" x="0px" y="0px"
	 viewBox="0 0 10 14" enable-background="new 0 0 10 14" xml:space="preserve">
<path fill="#DFEDFD" d="M8.7,5.1H8.4V3.5c0-1.8-1.5-3.3-3.3-3.3H4.9c-1.8,0-3.3,1.5-3.3,3.3v1.7H1.3C0.6,5.1,0,5.7,0,6.4v6.1
	c0,0.7,0.6,1.3,1.3,1.3h7.4c0.7,0,1.3-0.6,1.3-1.3V6.4C10,5.7,9.4,5.1,8.7,5.1z M5.6,9.5l0.2,2c0,0.1,0,0.1-0.1,0.1H4.3
	c-0.1,0-0.1-0.1-0.1-0.1l0.2-2C4,9.3,3.8,8.9,3.8,8.5c0-0.7,0.5-1.2,1.2-1.2c0.7,0,1.2,0.5,1.2,1.2C6.2,8.9,6,9.3,5.6,9.5z M7,5.1
	H2.9V3.5c0-1.1,0.9-2,2-2h0.2c1.1,0,2,0.9,2,2V5.1z"/>
</svg>
