<?xml version="1.0" encoding="utf-8"?>
<!-- Generator: Adobe Illustrator 19.1.0, SVG Export Plug-In . SVG Version: 6.00 Build 0)  -->
<svg version="1.1" id="Capa_1" xmlns="http://www.w3.org/2000/svg" xmlns:xlink="http://www.w3.org/1999/xlink" x="0px" y="0px"
	 viewBox="-11.9 -11.9 68 68" style="enable-background:new -11.9 -11.9 68 68;" xml:space="preserve">
<style type="text/css">
	.st0{fill:#FFFFFF;}
</style>
<path class="st0" d="M22.1-11.9c-18.8,0-34,15.2-34,34s15.2,34,34,34c18.8,0,34-15.2,34-34C56.1,3.3,40.9-11.9,22.1-11.9z
	 M27.2,33.4c0.3,0.3,0.3,0.7,0,1c-0.3,0.3-0.7,0.3-1,0L14.3,22.4c-0.1-0.1-0.2-0.3-0.2-0.5s0.1-0.4,0.2-0.5L26.2,9.5
	c0.3-0.3,0.7-0.3,1,0c0.3,0.3,0.3,0.7,0,1L15.8,21.9L27.2,33.4z"/>
</svg>
