<?xml version="1.0" encoding="utf-8"?>
<!-- Generator: Adobe Illustrator 19.1.0, SVG Export Plug-In . SVG Version: 6.00 Build 0)  -->
<svg version="1.1" id="Layer_1" xmlns="http://www.w3.org/2000/svg" xmlns:xlink="http://www.w3.org/1999/xlink" x="0px" y="0px"
	 viewBox="0 0 22 22" style="enable-background:new 0 0 22 22;" xml:space="preserve">
<style type="text/css">
	.st0{fill:#909799;}
</style>
<g>
	<g>
		<path class="st0" d="M17.4,7c-0.5,0.2-1,0.4-1.5,0.4c0.5-0.3,1-0.8,1.2-1.5c-0.5,0.3-1.1,0.5-1.7,0.6c-0.5-0.5-1.2-0.8-1.9-0.8
			c-1.5,0-2.6,1.2-2.6,2.6c0,0.2,0,0.4,0.1,0.6C8.7,8.9,6.8,7.9,5.5,6.3C5.2,6.7,5.1,7.1,5.1,7.6c0,0.9,0.5,1.7,1.2,2.2
			c-0.4,0-0.8-0.1-1.2-0.3v0c0,1.3,0.9,2.3,2.1,2.6c-0.2,0.1-0.5,0.1-0.7,0.1c-0.2,0-0.3,0-0.5,0c0.3,1,1.3,1.8,2.5,1.8
			c-0.9,0.7-2,1.1-3.3,1.1c-0.2,0-0.4,0-0.6,0c1.2,0.7,2.6,1.2,4,1.2c4.8,0,7.5-4,7.5-7.5l0-0.3C16.6,8,17.1,7.5,17.4,7z"/>
	</g>
	<g>
		<path class="st0" d="M11,22C4.9,22,0,17.1,0,11C0,4.9,4.9,0,11,0c6.1,0,11,4.9,11,11C22,17.1,17.1,22,11,22z M11,0.6
			C5.3,0.6,0.6,5.3,0.6,11S5.3,21.4,11,21.4S21.4,16.7,21.4,11S16.7,0.6,11,0.6z"/>
	</g>
</g>
</svg>
