<?xml version="1.0" encoding="utf-8"?>
<!-- Generator: Adobe Illustrator 19.1.0, SVG Export Plug-In . SVG Version: 6.00 Build 0)  -->
<svg version="1.1" id="Layer_1" xmlns="http://www.w3.org/2000/svg" xmlns:xlink="http://www.w3.org/1999/xlink" x="0px" y="0px"
	 viewBox="0 0 16 13" style="enable-background:new 0 0 16 13;" xml:space="preserve">
<style type="text/css">
	.st0{fill:#FACC13;}
</style>
<g>
	<path class="st0" d="M0.2,13c-0.1,0-0.1-0.2-0.1-0.2v-2.5c0,0,0-0.2,0.1-0.2c0,0,0.1,0,0.2,0.1l1.9,1.2c0.1,0.1,0.2,0.1,0.2,0.2
		c0,0.1-0.1,0.1-0.2,0.2l-1.9,1.2C0.2,13,0.2,13,0.2,13L0.2,13z"/>
	<path class="st0" d="M0.2,8C0.1,8,0.1,7.8,0.1,7.8V5.7c0-0.1,0-0.2,0.1-0.2c0,0,0.1,0,0.2,0l1.9,0.9c0.1,0.1,0.2,0.1,0.2,0.1
		c0,0,0,0.1-0.1,0.2L0.3,7.9C0.2,8,0.2,8,0.2,8z"/>
	<path class="st0" d="M0.2,2.9c-0.1,0-0.1-0.2-0.1-0.2V0.2c0,0,0-0.2,0.1-0.2c0,0,0.1,0,0.2,0.1l1.9,1.2c0.1,0.1,0.2,0.1,0.2,0.2
		c0,0.1-0.1,0.1-0.2,0.2L0.3,2.9C0.2,2.9,0.2,2.9,0.2,2.9C0.2,2.9,0.2,2.9,0.2,2.9z"/>
	<path class="st0" d="M4.9,12.3c-0.2,0-0.4-0.2-0.4-0.4v-0.8c0-0.2,0.2-0.4,0.4-0.4h10.7c0.2,0,0.4,0.2,0.4,0.4V12
		c0,0.2-0.2,0.4-0.4,0.4H4.9z M4.9,7.3c-0.2,0-0.4-0.2-0.4-0.4V6.1c0-0.2,0.2-0.4,0.4-0.4h10.7c0.2,0,0.4,0.2,0.4,0.4v0.8
		c0,0.2-0.2,0.4-0.4,0.4H4.9z M4.9,2.3c-0.2,0-0.4-0.2-0.4-0.4V1c0-0.2,0.2-0.4,0.4-0.4h10.7c0.2,0,0.4,0.2,0.4,0.4v0.8
		c0,0.2-0.2,0.4-0.4,0.4H4.9z"/>
</g>
</svg>
