<?xml version="1.0" encoding="utf-8"?>
<!-- Generator: Adobe Illustrator 19.1.0, SVG Export Plug-In . SVG Version: 6.00 Build 0)  -->
<svg version="1.1" id="Layer_1" xmlns="http://www.w3.org/2000/svg" xmlns:xlink="http://www.w3.org/1999/xlink" x="0px" y="0px"
	 viewBox="0 0 22 22" style="enable-background:new 0 0 22 22;" xml:space="preserve">
<style type="text/css">
	.st0{fill:#BDBEC0;}
	.st1{fill:#F9F9FA;}
	.st2{fill:#2C4493;}
	.st3{fill:#DD595E;}
</style>
<g>
	<g>
		<path class="st0" d="M11,22C4.9,22,0,17.1,0,11C0,4.9,4.9,0,11,0s11,4.9,11,11C22,17.1,17.1,22,11,22z M11,0.5
			C5.2,0.5,0.5,5.2,0.5,11S5.2,21.5,11,21.5c5.8,0,10.5-4.7,10.5-10.5S16.8,0.5,11,0.5z"/>
	</g>
	<g>
		<path class="st1" d="M3.2,8.2h15.5C17.6,5,14.6,2.7,11,2.7C7.4,2.7,4.4,5,3.2,8.2z"/>
	</g>
	<g>
		<path class="st2" d="M2.8,11c0,1,0.2,1.9,0.5,2.8h15.5c0.3-0.9,0.5-1.8,0.5-2.8s-0.2-1.9-0.5-2.8H3.2C2.9,9.1,2.8,10,2.8,11z"/>
	</g>
	<g>
		<path class="st3" d="M18.8,13.8H3.2c1.1,3.2,4.2,5.5,7.8,5.5C14.6,19.3,17.6,17,18.8,13.8z"/>
	</g>
</g>
</svg>
