<?xml version="1.0" encoding="utf-8"?>
<!-- Generator: Adobe Illustrator 19.1.0, SVG Export Plug-In . SVG Version: 6.00 Build 0)  -->
<svg version="1.1" id="Layer_1" xmlns="http://www.w3.org/2000/svg" xmlns:xlink="http://www.w3.org/1999/xlink" x="0px" y="0px"
	 viewBox="0 0 22 22" style="enable-background:new 0 0 22 22;" xml:space="preserve">
<style type="text/css">
	.st0{fill:#BDBEC0;}
	.st1{fill:#345DA8;}
	.st2{fill:#F7EB1B;}
</style>
<g>
	<g>
		<path class="st0" d="M11,22C4.9,22,0,17.1,0,11C0,4.9,4.9,0,11,0c6.1,0,11,4.9,11,11C22,17.1,17.1,22,11,22z M11,0.5
			C5.2,0.5,0.5,5.2,0.5,11S5.2,21.5,11,21.5S21.5,16.8,21.5,11S16.8,0.5,11,0.5z"/>
	</g>
	<g>
		<path class="st1" d="M11,2.8c-4.6,0-8.2,3.7-8.2,8.2h16.5C19.2,6.4,15.6,2.8,11,2.8z"/>
	</g>
	<g>
		<path class="st2" d="M11,19.2c4.6,0,8.2-3.7,8.2-8.2H2.8C2.8,15.6,6.4,19.2,11,19.2z"/>
	</g>
</g>
</svg>
