<?xml version="1.0" encoding="utf-8"?>
<!-- Generator: Adobe Illustrator 18.0.0, SVG Export Plug-In . SVG Version: 6.00 Build 0)  -->
<!DOCTYPE svg PUBLIC "-//W3C//DTD SVG 1.1//EN" "http://www.w3.org/Graphics/SVG/1.1/DTD/svg11.dtd">
<svg version="1.1" id="Layer_1" xmlns="http://www.w3.org/2000/svg" xmlns:xlink="http://www.w3.org/1999/xlink" x="0px" y="0px"
	 viewBox="0 0 40 40" enable-background="new 0 0 40 40" xml:space="preserve">
<g>
	<path fill="#FFFFFF" d="M20,0.7c2.6,0,5.1,0.5,7.5,1.5c2.3,1,4.4,2.4,6.1,4.1c1.8,1.8,3.2,3.8,4.1,6.1c1,2.4,1.5,4.9,1.5,7.5
		s-0.5,5.1-1.5,7.5c-1,2.3-2.4,4.4-4.1,6.1c-1.8,1.8-3.8,3.2-6.1,4.1c-2.4,1-4.9,1.5-7.5,1.5s-5.1-0.5-7.5-1.5
		c-2.3-1-4.4-2.4-6.1-4.1c-1.8-1.8-3.2-3.8-4.1-6.1c-1-2.4-1.5-4.9-1.5-7.5s0.5-5.1,1.5-7.5c1-2.3,2.4-4.4,4.1-6.1
		c1.8-1.8,3.8-3.2,6.1-4.1C14.9,1.2,17.4,0.7,20,0.7 M20,0C9,0,0,9,0,20s9,20,20,20s20-9,20-20S31,0,20,0L20,0z"/>
</g>
<g>
	<g>
		<path fill="#FFFFFF" d="M16.7,27.1c-0.3,0-0.5-0.2-0.5-0.5V13.4c0-0.3,0.2-0.5,0.5-0.5c0.3,0,0.5,0.2,0.5,0.5v13.2
			C17.2,26.9,17,27.1,16.7,27.1z"/>
	</g>
	<g>
		<path fill="#FFFFFF" d="M23.3,27.1c-0.3,0-0.5-0.2-0.5-0.5V13.4c0-0.3,0.2-0.5,0.5-0.5c0.3,0,0.5,0.2,0.5,0.5v13.2
			C23.9,26.9,23.6,27.1,23.3,27.1z"/>
	</g>
</g>
</svg>
