<?xml version="1.0" encoding="utf-8"?>
<!-- Generator: Adobe Illustrator 18.0.0, SVG Export Plug-In . SVG Version: 6.00 Build 0)  -->
<!DOCTYPE svg PUBLIC "-//W3C//DTD SVG 1.1//EN" "http://www.w3.org/Graphics/SVG/1.1/DTD/svg11.dtd">
<svg version="1.1" id="Layer_1" xmlns="http://www.w3.org/2000/svg" xmlns:xlink="http://www.w3.org/1999/xlink" x="0px" y="0px"
	 viewBox="0 0 40 40" enable-background="new 0 0 40 40" xml:space="preserve">
<g>
	<path fill="#FFFFFF" d="M20,0.7c2.6,0,5.1,0.5,7.5,1.5c2.3,1,4.4,2.4,6.1,4.1c1.8,1.8,3.2,3.8,4.1,6.1c1,2.4,1.5,4.9,1.5,7.5
		s-0.5,5.1-1.5,7.5c-1,2.3-2.4,4.4-4.1,6.1c-1.8,1.8-3.8,3.2-6.1,4.1c-2.4,1-4.9,1.5-7.5,1.5s-5.1-0.5-7.5-1.5
		c-2.3-1-4.4-2.4-6.1-4.1c-1.8-1.8-3.2-3.8-4.1-6.1c-1-2.4-1.5-4.9-1.5-7.5s0.5-5.1,1.5-7.5c1-2.3,2.4-4.4,4.1-6.1
		c1.8-1.8,3.8-3.2,6.1-4.1C14.9,1.2,17.4,0.7,20,0.7 M20,0C9,0,0,9,0,20s9,20,20,20s20-9,20-20S31,0,20,0L20,0z"/>
	<path fill="#FFFFFF" d="M15.8,11.2v0.7c0.2,0,0.3,0,0.5,0.1l12.5,7.1c0.4,0.2,0.5,0.6,0.5,0.8c0,0.2,0,0.6-0.5,0.8L16.3,28
		c-0.1,0.1-0.3,0.1-0.5,0.1c-0.2,0-0.5-0.1-0.6-0.3c-0.1-0.1-0.3-0.3-0.3-0.7l0-14.4c0-0.6,0.5-0.9,0.9-0.9L15.8,11.2 M15.8,11.2
		c-0.9,0-1.6,0.7-1.6,1.6l0,14.4c0,1,0.8,1.6,1.6,1.6c0.3,0,0.6-0.1,0.8-0.2l12.5-7.2c1.1-0.6,1.1-2.2,0-2.8l-12.5-7.1
		C16.4,11.2,16.1,11.2,15.8,11.2L15.8,11.2z"/>
</g>
</svg>
