<?xml version="1.0" encoding="utf-8"?>
<!-- Generator: Adobe Illustrator 18.0.0, SVG Export Plug-In . SVG Version: 6.00 Build 0)  -->
<!DOCTYPE svg PUBLIC "-//W3C//DTD SVG 1.1//EN" "http://www.w3.org/Graphics/SVG/1.1/DTD/svg11.dtd">
<svg version="1.1" id="Layer_1" xmlns="http://www.w3.org/2000/svg" xmlns:xlink="http://www.w3.org/1999/xlink" x="0px" y="0px"
	 viewBox="0 0 26 26" enable-background="new 0 0 26 26" xml:space="preserve">
<g>
	<g>
		<path fill="#FFFFFF" d="M13.2,16.3c-0.2,0-0.5,0-0.7,0.1C11.1,16.7,10,18,10,19.2c0,0.9,0.8,1.5,1.8,1.5h0c0.2,0,0.5,0,0.7-0.1
			c1.4-0.3,2.6-1.6,2.5-2.8C15,16.9,14.3,16.3,13.2,16.3z"/>
	</g>
	<g>
		<path fill="#FFFFFF" d="M13,0C5.8,0,0,5.8,0,13s5.8,13,13,13s13-5.8,13-13S20.2,0,13,0z M15.8,17.8L15.8,17.8
			c0,0.7-0.3,1.5-0.9,2.2c-0.6,0.6-1.4,1.1-2.2,1.3c-0.3,0.1-0.6,0.1-0.9,0.1c0,0,0,0,0,0c-1.5,0-2.5-0.9-2.5-2.2
			c0-0.7,0.3-1.5,0.9-2.2c0.6-0.6,1.4-1.1,2.2-1.3c0.3-0.1,0.6-0.1,0.9-0.1c0.7,0,1.4,0.2,1.8,0.6V5h0.7V17.8z"/>
	</g>
</g>
</svg>
