<?xml version="1.0" encoding="utf-8"?>
<!-- Generator: Adobe Illustrator 18.0.0, SVG Export Plug-In . SVG Version: 6.00 Build 0)  -->
<!DOCTYPE svg PUBLIC "-//W3C//DTD SVG 1.1//EN" "http://www.w3.org/Graphics/SVG/1.1/DTD/svg11.dtd">
<svg version="1.1" id="Layer_1" xmlns="http://www.w3.org/2000/svg" xmlns:xlink="http://www.w3.org/1999/xlink" x="0px" y="0px"
	 viewBox="0 0 26 26" enable-background="new 0 0 26 26" xml:space="preserve">
<g>
	<path fill="#FFFFFF" d="M12.5,7.5c-0.1,0-0.2,0-0.2,0.1l-3,2.8H6.5c-0.2,0-0.4,0.2-0.4,0.4v4.3c0,0.2,0.2,0.4,0.4,0.4h2.8l3,2.8
		c0.1,0.1,0.2,0.1,0.3,0.1c0.1,0,0.2,0,0.3-0.1c0.1-0.1,0.1-0.2,0.1-0.3V7.9C13,7.6,12.7,7.5,12.5,7.5z"/>
	<path fill="#FFFFFF" d="M13,0C5.8,0,0,5.8,0,13c0,7.2,5.8,13,13,13s13-5.8,13-13C26,5.8,20.2,0,13,0z M13.7,18.1
		c0,0.3-0.1,0.6-0.4,0.8c-0.2,0.2-0.5,0.3-0.8,0.3c0,0,0,0,0,0c-0.2,0-0.5-0.1-0.7-0.2l0,0L9,16.3H6.5c-0.6,0-1.1-0.5-1.1-1.1v-4.3
		c0-0.6,0.5-1.1,1.1-1.1H9L11.8,7l0,0c0.2-0.2,0.4-0.2,0.7-0.2c0.6,0,1.2,0.5,1.2,1.2V18.1z M16,17.3c-0.1,0.1-0.2,0.1-0.2,0.1
		c-0.1,0-0.2,0-0.3-0.1c-0.1-0.1-0.1-0.4,0-0.5c1.1-1,1.7-2.3,1.7-3.8c0-1.4-0.6-2.8-1.7-3.8c-0.1-0.1-0.2-0.4,0-0.5
		c0.1-0.1,0.4-0.2,0.5,0c1.3,1.1,2,2.7,2,4.3C17.9,14.6,17.2,16.1,16,17.3z M17.7,19.3c-0.1,0.1-0.2,0.1-0.2,0.1
		c-0.1,0-0.2,0-0.3-0.1c-0.1-0.1-0.1-0.4,0-0.5c1.8-1.6,2.7-3.6,2.7-5.8c0-2.2-1-4.2-2.7-5.8c-0.1-0.1-0.2-0.4,0-0.5
		c0.1-0.1,0.4-0.2,0.5,0c1.9,1.7,2.9,3.9,2.9,6.3C20.7,15.4,19.6,17.7,17.7,19.3z"/>
</g>
</svg>
