<?xml version="1.0" encoding="utf-8"?>
<!-- Generator: Adobe Illustrator 18.0.0, SVG Export Plug-In . SVG Version: 6.00 Build 0)  -->
<!DOCTYPE svg PUBLIC "-//W3C//DTD SVG 1.1//EN" "http://www.w3.org/Graphics/SVG/1.1/DTD/svg11.dtd">
<svg version="1.1" id="Layer_1" xmlns="http://www.w3.org/2000/svg" xmlns:xlink="http://www.w3.org/1999/xlink" x="0px" y="0px"
	 viewBox="0 0 26 26" enable-background="new 0 0 26 26" xml:space="preserve">
<g>
	<g>
		<g>
			<path fill="#FFFFFF" d="M13,0.7c1.7,0,3.3,0.3,4.8,1c1.5,0.6,2.8,1.5,3.9,2.6c1.1,1.1,2,2.4,2.6,3.9c0.6,1.5,1,3.1,1,4.8
				s-0.3,3.3-1,4.8c-0.6,1.5-1.5,2.8-2.6,3.9c-1.1,1.1-2.4,2-3.9,2.6c-1.5,0.6-3.1,1-4.8,1s-3.3-0.3-4.8-1c-1.5-0.6-2.8-1.5-3.9-2.6
				c-1.1-1.1-2-2.4-2.6-3.9c-0.6-1.5-1-3.1-1-4.8s0.3-3.3,1-4.8c0.6-1.5,1.5-2.8,2.6-3.9s2.4-2,3.9-2.6C9.7,1,11.3,0.7,13,0.7 M13,0
				C5.8,0,0,5.8,0,13s5.8,13,13,13s13-5.8,13-13S20.2,0,13,0L13,0z"/>
		</g>
	</g>
	<g>
		<g>
			<g>
				<path fill="#FFFFFF" d="M12.5,19.2C12.5,19.2,12.5,19.2,12.5,19.2c-0.2,0-0.5-0.1-0.7-0.2l0,0L9,16.3H6.5
					c-0.6,0-1.1-0.5-1.1-1.1v-4.3c0-0.6,0.5-1.1,1.1-1.1H9L11.8,7l0,0c0.2-0.2,0.4-0.2,0.7-0.2c0.6,0,1.2,0.5,1.2,1.2v10.2
					c0,0.3-0.1,0.6-0.4,0.8C13.1,19.1,12.8,19.2,12.5,19.2z M12.3,18.4c0.1,0.1,0.2,0.1,0.3,0.1c0.1,0,0.2,0,0.3-0.1
					c0.1-0.1,0.1-0.2,0.1-0.3V7.9c0-0.3-0.2-0.4-0.4-0.4c-0.1,0-0.2,0-0.2,0.1l-3,2.8H6.5c-0.2,0-0.4,0.2-0.4,0.4v4.3
					c0,0.2,0.2,0.4,0.4,0.4h2.8L12.3,18.4z"/>
			</g>
		</g>
	</g>
	<g>
		<path fill="#FFFFFF" d="M16.4,15.2c-0.1,0-0.2,0-0.3-0.1c-0.1-0.1-0.1-0.4,0-0.5l3.6-3.6c0.1-0.1,0.4-0.1,0.5,0
			c0.1,0.1,0.1,0.4,0,0.5l-3.6,3.6C16.5,15.2,16.5,15.2,16.4,15.2z"/>
	</g>
	<g>
		<path fill="#FFFFFF" d="M20.1,15.2c-0.1,0-0.2,0-0.3-0.1l-3.7-3.7c-0.1-0.1-0.1-0.4,0-0.5c0.1-0.1,0.4-0.1,0.5,0l3.7,3.7
			c0.1,0.1,0.1,0.4,0,0.5C20.2,15.2,20.1,15.2,20.1,15.2z"/>
	</g>
</g>
</svg>
