<?xml version="1.0" encoding="utf-8"?>
<!-- Generator: Adobe Illustrator 18.0.0, SVG Export Plug-In . SVG Version: 6.00 Build 0)  -->
<!DOCTYPE svg PUBLIC "-//W3C//DTD SVG 1.1//EN" "http://www.w3.org/Graphics/SVG/1.1/DTD/svg11.dtd">
<svg version="1.1" id="Layer_1" xmlns="http://www.w3.org/2000/svg" xmlns:xlink="http://www.w3.org/1999/xlink" x="0px" y="0px"
	 viewBox="0 0 26 26" enable-background="new 0 0 26 26" xml:space="preserve">
<g>
	<path fill="#FFFFFF" d="M13,0C5.8,0,0,5.8,0,13s5.8,13,13,13s13-5.8,13-13S20.2,0,13,0z M13,25.3c-1.7,0-3.3-0.3-4.8-1
		c-1.5-0.6-2.8-1.5-3.9-2.6c-1.1-1.1-2-2.4-2.6-3.9c-0.6-1.5-1-3.1-1-4.8s0.3-3.3,1-4.8c0.6-1.4,1.4-2.6,2.4-3.7l17.4,17.4
		c-1.1,1-2.3,1.8-3.7,2.4C16.3,25,14.7,25.3,13,25.3z M21.9,21.4L4.6,4.1c1.1-1,2.3-1.8,3.7-2.4c1.5-0.6,3.1-1,4.8-1s3.3,0.3,4.8,1
		c1.5,0.6,2.8,1.5,3.9,2.6c1.1,1.1,2,2.4,2.6,3.9c0.6,1.5,1,3.1,1,4.8s-0.3,3.3-1,4.8C23.7,19.1,22.9,20.4,21.9,21.4z"/>
	<path fill="#FFFFFF" d="M13.2,15.6c-0.3,0-0.6,0-0.9,0.1c-0.8,0.2-1.6,0.7-2.2,1.3c-0.6,0.7-0.9,1.4-0.9,2.2c0,1.3,1.1,2.2,2.5,2.2
		c0,0,0,0,0,0c0.3,0,0.6,0,0.9-0.1c0.8-0.2,1.6-0.7,2.2-1.3c0.6-0.7,0.9-1.4,0.9-2.2h0v-0.7l-1.2-1.2C14.2,15.7,13.7,15.6,13.2,15.6
		z M15.1,17.8c0,1.2-1.1,2.4-2.5,2.8c-0.2,0.1-0.5,0.1-0.7,0.1h0c-1.1,0-1.8-0.6-1.8-1.5c0-1.2,1.1-2.4,2.5-2.8
		c0.2-0.1,0.5-0.1,0.7-0.1C14.3,16.3,15,16.9,15.1,17.8z"/>
	<polygon fill="#FFFFFF" points="15.1,13.7 15.8,14.4 15.8,5 15.1,5 	"/>
</g>
</svg>
