<?xml version="1.0" encoding="utf-8"?>
<!-- Generator: Adobe Illustrator 18.0.0, SVG Export Plug-In . SVG Version: 6.00 Build 0)  -->
<!DOCTYPE svg PUBLIC "-//W3C//DTD SVG 1.1//EN" "http://www.w3.org/Graphics/SVG/1.1/DTD/svg11.dtd">
<svg version="1.1" id="Layer_1" xmlns="http://www.w3.org/2000/svg" xmlns:xlink="http://www.w3.org/1999/xlink" x="0px" y="0px"
	 viewBox="0 0 40 40" enable-background="new 0 0 40 40" xml:space="preserve">
<g>
	<path fill="#FFFFFF" d="M20,0C9,0,0,9,0,20s9,20,20,20s20-9,20-20S31,0,20,0z M33.6,33.6c-1.8,1.8-3.8,3.2-6.1,4.1
		c-2.4,1-4.9,1.5-7.5,1.5s-5.1-0.5-7.5-1.5c-2.3-1-4.4-2.4-6.1-4.1c-1.8-1.8-3.2-3.8-4.1-6.1c-1-2.4-1.5-4.9-1.5-7.5
		s0.5-5.1,1.5-7.5c1-2.3,2.4-4.4,4.1-6.1c1.8-1.8,3.8-3.2,6.1-4.1c2.4-1,4.9-1.5,7.5-1.5s5.1,0.5,7.5,1.5c2.3,1,4.4,2.4,6.1,4.1
		c1.8,1.8,3.2,3.8,4.1,6.1c1,2.4,1.5,4.9,1.5,7.5s-0.5,5.1-1.5,7.5C36.8,29.8,35.4,31.9,33.6,33.6z"/>
	<path fill="#FFFFFF" d="M23.9,11.7h-7.9c-2.4,0-4.4,2-4.4,4.4v7.9c0,2.4,2,4.4,4.4,4.4h7.9c2.4,0,4.4-2,4.4-4.4v-7.9
		C28.3,13.7,26.3,11.7,23.9,11.7z M27.6,23.9c0,2-1.6,3.6-3.6,3.6h-7.9c-2,0-3.6-1.6-3.6-3.6v-7.9c0-2,1.6-3.6,3.6-3.6h7.9
		c2,0,3.6,1.6,3.6,3.6V23.9z"/>
</g>
</svg>
