<?xml version="1.0" encoding="utf-8"?>
<!-- Generator: Adobe Illustrator 18.0.0, SVG Export Plug-In . SVG Version: 6.00 Build 0)  -->
<!DOCTYPE svg PUBLIC "-//W3C//DTD SVG 1.1//EN" "http://www.w3.org/Graphics/SVG/1.1/DTD/svg11.dtd">
<svg version="1.1" id="Layer_1" xmlns="http://www.w3.org/2000/svg" xmlns:xlink="http://www.w3.org/1999/xlink" x="0px" y="0px"
	 viewBox="0 0 26 26" enable-background="new 0 0 26 26" xml:space="preserve">
<g>
	<g>
		<path fill="#FFFFFF" d="M20.1,19.6L20.1,19.6l2.4,2.4c2.2-2.3,3.6-5.5,3.6-8.9c0-7.2-5.8-13-13-13C9.5,0,6.4,1.4,4.1,3.6
			L20.1,19.6z M15.1,5h0.7v9.4l-0.7-0.7V5z"/>
	</g>
	<g>
		<path fill="#FFFFFF" d="M13.2,16.3c-0.2,0-0.5,0-0.7,0.1C11.1,16.7,10,18,10,19.2c0,0.9,0.8,1.5,1.8,1.5h0c0.2,0,0.5,0,0.7-0.1
			c1.4-0.3,2.6-1.6,2.5-2.8C15,16.9,14.3,16.3,13.2,16.3z"/>
	</g>
	<g>
		<path fill="#FFFFFF" d="M4.5,5L4.5,5l-1-1C1.4,6.4,0,9.5,0,13c0,7.2,5.8,13,13,13c3.5,0,6.6-1.4,8.9-3.6L4.5,5z M14.9,20
			c-0.6,0.6-1.4,1.1-2.2,1.3c-0.3,0.1-0.6,0.1-0.9,0.1c0,0,0,0,0,0c-1.5,0-2.5-0.9-2.5-2.2c0-0.7,0.3-1.5,0.9-2.2
			c0.6-0.6,1.4-1.1,2.2-1.3c0.3-0.1,0.6-0.1,0.9-0.1c0.5,0,1,0.1,1.3,0.3l1.2,1.2v0.7h0C15.8,18.6,15.5,19.3,14.9,20z"/>
	</g>
</g>
</svg>
