<?xml version="1.0" encoding="utf-8"?>
<!-- Generator: Adobe Illustrator 19.1.0, SVG Export Plug-In . SVG Version: 6.00 Build 0)  -->
<svg version="1.1" id="Layer_1" xmlns="http://www.w3.org/2000/svg" xmlns:xlink="http://www.w3.org/1999/xlink" x="0px" y="0px"
	 viewBox="0 0 22 22" style="enable-background:new 0 0 22 22;" xml:space="preserve">
<style type="text/css">
	.st0{fill:#909799;}
</style>
<g>
	<g>
		<path class="st0" d="M11,22C4.9,22,0,17.1,0,11C0,4.9,4.9,0,11,0c6.1,0,11,4.9,11,11C22,17.1,17.1,22,11,22z M11,0.6
			C5.3,0.6,0.6,5.3,0.6,11S5.3,21.4,11,21.4S21.4,16.7,21.4,11S16.7,0.6,11,0.6z"/>
	</g>
	<g>
		<g>
			<path class="st0" d="M17.3,10.2c0.2-0.3,0.4-0.5,0.6-0.7c1-1.3,1.4-2.2,1.3-2.5l-0.1-0.1c0-0.1-0.1-0.1-0.3-0.1
				c-0.1,0-0.3,0-0.5,0l-2.5,0c-0.1,0-0.1,0-0.2,0c-0.1,0-0.1,0-0.1,0c0,0,0,0,0,0l0,0c0,0-0.1,0-0.1,0.1S15.3,7,15.3,7.1
				C15,7.7,14.7,8.4,14.4,9c-0.2,0.4-0.4,0.7-0.6,0.9c-0.2,0.3-0.3,0.5-0.4,0.6c-0.1,0.1-0.2,0.2-0.3,0.3c-0.1,0.1-0.2,0.1-0.2,0.1
				c-0.1,0-0.1,0-0.1,0c-0.1-0.1-0.1-0.1-0.2-0.2c0-0.1-0.1-0.2-0.1-0.3c0-0.1,0-0.3,0-0.3c0-0.1,0-0.2,0-0.4c0-0.2,0-0.3,0-0.4
				c0-0.2,0-0.5,0-0.7c0-0.3,0-0.5,0-0.6c0-0.1,0-0.3,0-0.5c0-0.2,0-0.3,0-0.4c0-0.1-0.1-0.2-0.1-0.3c0-0.1-0.1-0.2-0.2-0.2
				c-0.1,0-0.2-0.1-0.3-0.1c-0.3-0.1-0.7-0.1-1.2-0.1c-1.1,0-1.8,0.1-2.1,0.2C8.5,6.6,8.3,6.6,8.2,6.8C8.1,6.9,8.1,6.9,8.2,7
				C8.5,7,8.8,7.1,8.9,7.3L9,7.4c0,0.1,0.1,0.2,0.1,0.4c0,0.2,0.1,0.4,0.1,0.6c0,0.4,0,0.8,0,1.1c0,0.3-0.1,0.5-0.1,0.7
				c0,0.2-0.1,0.3-0.1,0.4c-0.1,0.1-0.1,0.2-0.1,0.2c0,0,0,0,0,0c-0.1,0-0.2,0-0.2,0s-0.2,0-0.3-0.1c-0.1-0.1-0.2-0.2-0.4-0.3
				c-0.1-0.1-0.3-0.3-0.4-0.6C7.4,9.6,7.2,9.3,7.1,9L6.9,8.7C6.8,8.6,6.7,8.3,6.6,8C6.4,7.7,6.3,7.4,6.2,7.1C6.1,7,6.1,6.9,6,6.9
				l0,0c0,0-0.1,0-0.1-0.1c-0.1,0-0.1,0-0.2-0.1l-2.4,0C3,6.7,2.8,6.8,2.7,6.9l0,0.1c0,0,0,0.1,0,0.1c0,0.1,0,0.1,0.1,0.2
				c0.3,0.8,0.7,1.6,1.1,2.3c0.4,0.8,0.8,1.4,1.1,1.8c0.3,0.5,0.6,0.9,0.9,1.3s0.5,0.7,0.6,0.8c0.1,0.1,0.2,0.2,0.2,0.3L6.9,14
				c0.1,0.1,0.3,0.3,0.6,0.5c0.3,0.2,0.6,0.4,0.9,0.6c0.3,0.2,0.7,0.3,1.1,0.5c0.4,0.1,0.8,0.2,1.3,0.1h1c0.2,0,0.4-0.1,0.5-0.2l0,0
				c0,0,0-0.1,0.1-0.2c0-0.1,0-0.2,0-0.2c0-0.2,0-0.5,0.1-0.7c0-0.2,0.1-0.3,0.1-0.4c0.1-0.1,0.1-0.2,0.2-0.3
				c0.1-0.1,0.1-0.1,0.1-0.1c0,0,0.1,0,0.1,0c0.1,0,0.3,0,0.5,0.1c0.2,0.1,0.4,0.3,0.5,0.5c0.2,0.2,0.4,0.4,0.6,0.7
				c0.2,0.2,0.4,0.4,0.6,0.5l0.2,0.1c0.1,0.1,0.3,0.1,0.4,0.2c0.2,0.1,0.3,0.1,0.5,0l2.2,0c0.2,0,0.4,0,0.5-0.1
				c0.1-0.1,0.2-0.2,0.2-0.2c0-0.1,0-0.2,0-0.3c0-0.1,0-0.2-0.1-0.2c0,0,0-0.1-0.1-0.1c-0.3-0.5-0.8-1.1-1.6-1.9l0,0l0,0l0,0h0
				c-0.4-0.3-0.6-0.6-0.7-0.7c-0.2-0.2-0.2-0.5-0.1-0.7C16.6,11.2,16.9,10.8,17.3,10.2z"/>
		</g>
	</g>
</g>
</svg>
